<?xml version="1.0" encoding="utf-8"?>
<!-- Generator: Adobe Illustrator 24.2.3, SVG Export Plug-In . SVG Version: 6.00 Build 0)  -->
<svg version="1.1" id="Layer_1" xmlns="http://www.w3.org/2000/svg" xmlns:xlink="http://www.w3.org/1999/xlink" x="0px" y="0px"
	 viewBox="0 0 1368 887.2" style="enable-background:new 0 0 1368 887.2;" xml:space="preserve">
<style type="text/css">
	.st0{fill:#29ABE2;}
	.st1{opacity:0.86;fill:#FBCF3B;enable-background:new    ;}
	.st2{fill:#754C24;}
	.st3{fill:#2E3192;}
	.st4{fill:#FFC4AA;}
	.st5{fill:#3FA9F5;}
	.st6{fill:#1B1464;}
	.st7{fill:none;stroke:#3FA9F5;stroke-width:3;stroke-miterlimit:10;}
	.st8{fill:#999999;}
	.st9{fill:none;stroke:#754C24;stroke-width:37;stroke-miterlimit:10;}
	.st10{fill:none;stroke:#754C24;stroke-width:17;stroke-miterlimit:10;}
</style>
<symbol  id="New_Symbol" viewBox="-386 -213.9 771.9 427.8">
	<path class="st0" d="M-378.4-182.7c23.2-12,50.4-11,75.2-5.5c13.4,3,26.5,7.1,39.3,12.1c12.2,4.7,24.7,9.6,38,10
		c24,0.7,44-14.2,64.1-25.2c11.4-6.2,23.6-10.8,36.7-11.3c13.7-0.5,27.2,2.4,40.3,6.3c25,7.5,49,19,75.3,21.7
		c27.6,2.8,51.5-8.6,76.2-19.1c12.1-5.2,25.1-10.3,38.5-10.3c12.7,0,23.8,5.2,34.3,11.9c10.5,6.7,21,14.6,33.4,17
		c12.7,2.5,24.8-1.2,35.9-7.2c12.9-7,24.7-15.7,39.3-18.8c14.6-3.1,30.1-1.2,44.7,1.5c29.5,5.5,59.6,14.9,89.5,6.5
		c6.2-1.8,3.5-11.4-2.7-9.6c-26.8,7.6-54.2-0.6-80.6-5.8c-13.3-2.6-26.9-4.8-40.5-3.9c-12.8,0.8-25.2,4.5-36.4,10.8
		c-11.2,6.1-21.8,14.5-34.6,16.9c-13.8,2.5-25.5-4.5-36.6-11.7c-10.6-6.9-21.2-13.7-33.7-16.2s-24.9-0.6-36.9,3.2
		c-25.8,8.3-49.3,24.4-77,25.4c-26.8,1-52-10.7-76.9-19c-24.7-8.3-51.4-13.8-76.6-4.5c-22.3,8.2-40.8,25.7-64.4,30.5
		c-14.7,3-28.8-1.8-42.4-7c-14.3-5.4-28.6-10.5-43.6-13.7c-27.6-6-57.2-6.7-82.9,6.6C-389.2-188.4-384.1-179.7-378.4-182.7
		L-378.4-182.7z"/>
	<path class="st0" d="M383.8-177.6v-0.5h-766.6v392H384v-390.2C383.8-176.7,383.8-177.2,383.8-177.6z"/>
	<path class="st0" d="M-377.6-173.2c33.1,1.5,67.2-10.6,99.6,0v-9.7c-8.9,2-17.6-0.9-26-3.6c-8.2-2.7-16.7-4.6-25.3-5.8
		c-16.9-2.2-34-1.2-50.5,3c-5.3,1.3-4.4,10.3,1.3,9.8l72.4-6.3c2-0.2,5.2-1,7.1-0.3c2.2,0.7,3,3.5,4.3,5.2c2.2,3.2,5.3,5.7,8.8,7.4
		c7.7,3.7,16.6,3.6,24.9,3.1c6.4-0.4,6.4-10.4,0-10c-7.5,0.5-17.6,1.3-23.7-4c-3.2-2.8-4.2-7.3-8-9.7c-4-2.6-9-1.9-13.5-1.6
		l-72.3,6.2l1.4,9.8c17.2-4.4,35.1-5,52.5-1.8c16.3,3.1,32.3,12.2,49.3,8.3c5-1.2,4.5-8.2,0-9.6c-33.5-10.9-68.2,1.2-102.3-0.3
		C-384-183.5-384-173.5-377.6-173.2z"/>
	<path class="st0" d="M-164.3-167.2c19-10.8,41.7-17.5,63.6-13.9c22.8,3.7,42.6,18.2,66.4,17.1l-2.7-19.6c-19.2,2.7-39-0.1-58.1-2.2
		c-19.9-2.1-39.7-3.3-59.5,0.5l11.3,14.7c5-7.9,12.1-14.4,20.4-18.7c10-5.3,3.2-21.6-7.7-18.3c-22.8,7-44.5,17.3-64.4,30.5
		c-10.7,7.1-0.7,24.4,10.1,17.3c18.4-12.3,38.5-21.9,59.7-28.5l-7.7-18.3c-11.3,6.1-20.8,15-27.6,25.9c-5,7.9,3.2,16.2,11.3,14.7
		c19.1-3.6,38.7-1.4,57.9,0.6c20,2.2,39.7,3.8,59.8,1c11.2-1.5,8.5-20.2-2.7-19.6c-11.5,0.5-22.2-3.4-32.9-7.5
		c-11.8-4.5-23.3-8.6-36-9.9c-24.8-2.7-49.9,4.9-71.3,17C-185.6-178.2-175.6-160.9-164.3-167.2L-164.3-167.2z"/>
	<path class="st0" d="M43.7-164.2c17.5-10.1,36.1-21.3,56.7-23.3c9.4-0.9,19,0.1,27.7,4c9.2,4.1,17.4,10.5,25.4,16.6l5-18.6
		c-45.3-3-90.6,1.5-135.6,6.8c-5.4,0.6-10,4.1-10,10c0,4.9,4.6,10.6,10,10c45-5.3,90.2-9.8,135.6-6.8c4.3,0.3,8.5-3.3,9.6-7.3
		c1.3-4.6-1-8.6-4.6-11.3c-8.7-6.7-17.5-13.3-27.7-17.7c-11.1-4.8-23.3-6.8-35.4-5.6c-24.5,2.2-45.9,13.9-66.8,26
		C22.5-175.1,32.5-157.8,43.7-164.2L43.7-164.2z"/>
	<path class="st0" d="M84.4-177.7h27.1c12.9,0,12.9-20,0-20H84.4C71.5-197.7,71.5-177.7,84.4-177.7z"/>
	<path class="st0" d="M376.3-193.5c-19.7-0.2-39.5-0.1-59.2-0.9c-16.1-0.6-34.3,0.6-48.9-7.4l-5,18.6l30.5,0.3c13,0.1,12.7-19,0-20
		c-17.3-1.4-34.8,0.8-51.2,6.5c-8.1,3-16,6.6-23.5,10.9c-6.2,3.4-13.4,8-20.8,5.9l4.4,16.7c19.7-18.5,48.2-27.6,75.1-23.1l-4.4-16.8
		c-9.5,9.4-20.2,17.5-31.9,24c-4.3,2.6-6,7.9-4.1,12.5c2.1,4.9,6.7,6.7,11.8,5.8c13.3-2.2,26.5-5.5,39.3-9.6
		c10.9-3.6,31.6-9.6,23.2-25.4c-6-11.4-23.3-1.3-17.3,10.1l0.5,0.9l-1.4-5.1v1l1.4-5.1c0.1-0.3-0.3,0.2-2,0.8
		c-2.3,0.9-4.7,1.7-7.1,2.5c-4.4,1.5-8.9,2.9-13.5,4.2c-9.4,2.6-18.9,4.7-28.5,6.3l7.7,18.3c13.1-7.4,25.2-16.5,35.9-27.1
		c4.9-4.9,3.2-15.4-4.4-16.7c-34.2-5.9-69.2,4.6-94.6,28.3c-5.6,5.2-2.6,14.7,4.4,16.7c18.8,5.4,33.7-8.2,50-14.9
		c16.1-6.5,33.5-9.2,50.8-7.7v-20l-30.5-0.3c-9.8-0.1-13.8,13.8-5,18.6c16.9,9.3,36.4,9.2,55.1,10c21,0.9,42,0.8,63,1
		C389.1-173.4,389.1-193.4,376.3-193.5L376.3-193.5z"/>
	<path class="st0" d="M309-185.5l3.1,1c2.6,0.6,5.3,0.2,7.7-1c1.1-0.6,2.1-1.5,2.8-2.6c0.9-1,1.5-2.1,1.8-3.4c0.7-2.6,0.3-5.4-1-7.7
		l-1.6-2c-1.2-1.2-2.7-2.1-4.4-2.6l-3.1-1c-1.3-0.4-2.7-0.5-4-0.2c-1.3,0.1-2.6,0.5-3.7,1.2c-1.1,0.6-2.1,1.5-2.8,2.6
		c-0.9,1-1.5,2.1-1.8,3.4c-0.7,2.6-0.3,5.4,1,7.7l1.6,2C305.8-186.8,307.4-185.9,309-185.5z"/>
	<path class="st0" d="M376.3-175.6c12.9,0,12.9-20,0-20S363.4-175.6,376.3-175.6z"/>
</symbol>
<rect x="1.5" class="st1" width="1366.5" height="514.8"/>
<rect y="559.5" class="st0" width="1368" height="211.2"/>
<g>
	<defs>
		<rect id="SVGID_1_" x="-4" y="377.6" width="1381.3" height="222.4"/>
	</defs>
	<clipPath id="SVGID_2_">
		<use xlink:href="#SVGID_1_"  style="overflow:visible;"/>
	</clipPath>
	<g transform="matrix(1 0 0 1 0 0)" style="clip-path:url(#SVGID_2_);">
		
			<use xlink:href="#New_Symbol"  width="771.9" height="427.8" x="-386" y="-213.9" transform="matrix(1.7894 0 0 0.52 680.8731 487.2213)" style="overflow:visible;"/>
	</g>
</g>
<path class="st2" d="M359.3,688.4c-0.2,1.2-0.2,2.4,0.1,3.5C359.4,690.7,359.4,689.6,359.3,688.4z"/>
<path class="st3" d="M704.5,776.1c-6.5-78.8-29-155.3-66.3-225c-4.8-8.9-9.9-17.9-17.5-24.6c-8-7.1-18.2-11.3-28.4-14.7
	c-39.6-13.6-86.2-18.3-121.1,4.8c-27.5,18.2-42.4,50-54.1,80.9c-21.9,57.7-37.5,117.5-46.6,178.5"/>
<ellipse class="st4" cx="541.7" cy="420.5" rx="54.5" ry="69.6"/>
<ellipse cx="526.3" cy="412.9" rx="4.8" ry="12.6"/>
<ellipse cx="553.4" cy="413.2" rx="4.8" ry="12.6"/>
<path d="M518.9,448.5c1.3,8,6.8,15.1,14,18.8c6.7,3.5,18.5,5.4,22.9-2.5c1.1-2.3,2-4.8,2.5-7.3l2.4-9.7c0.5-1.9-2.4-2.7-2.9-0.8
	c-1.2,4.6-2.1,9.4-3.6,14c-0.5,1.9-1.6,3.6-3.2,4.8c-1.8,1-3.9,1.6-6,1.5c-7.1,0.2-13.9-3.4-18.4-8.8c-2.6-3.1-4.3-6.8-4.9-10.8
	C521.5,445.8,518.6,446.6,518.9,448.5L518.9,448.5z"/>
<path d="M539.1,428c-1.7,5-3.9,9.8-6.6,14.5c-0.4,0.7-0.2,1.6,0.5,2c3.5,1.9,7.5,2.8,11.5,2.6c1.9-0.1,1.9-3.1,0-3
	c-3.5,0.1-6.9-0.6-10-2.2l0.5,2c2.8-4.8,5.1-9.9,6.9-15.2C542.7,427,539.8,426.2,539.1,428L539.1,428z"/>
<path d="M543,453.2c-5-7-13.4-10.7-21.9-9.7c-18.9,2.5-30.3,27-49.4,26.7c-1.5,0-3.2-0.3-4.2-1.5c-2-2.3,0.2-6,3-7.4
	c4.8-2.4,10.5-1.6,14.5,1.9c-2.1-5-6.8-8.4-12.2-8.9c-2.9-0.2-6.3,0.6-7.8,3.2c-1.2,2-1,4.4-0.5,6.7c3.6,17.4,20.6,28.7,38,25.1
	c1.6-0.3,3.3-0.8,4.8-1.4c4.5-1.7,8.5-4.3,12.7-6.7c5.4-3,11.1-5.5,16.9-7.4c1.8-0.7,3.7-1,5.6-0.7c2.5,0.6,4.2,2.7,5.9,4.5
	c9.6,10,23.6,14.6,37.3,12.3c7.9-1.4,15.2-5.1,22.3-8.7c6.6-3.3,13.8-7.5,15.5-14.6c1.8-7.8-5.6-16.2-13.5-15.4
	c-2.9,0.2-5.5,1.7-7.1,4c-1.5,2.4-1.3,5.9,0.9,7.7c2.6-1.8,5.9-3.1,8.9-2.2s4.8,5.3,2.5,7.5c-0.7,0.6-1.5,1-2.4,1.3
	c-5.2,2-11.1,3.4-16.2,1.2c-5.9-2.5-8.9-8.9-12.8-14c-9.6-12.5-28.6-17.7-42-9.4"/>
<path d="M538,447.8c-0.5,1.8-0.5,3.7-0.1,5.5c0.4,1.4,1,2.8,1.7,4.1l-0.5-1.1c0.1,0.3,0.2,0.5,0.3,0.8c0.3,1.1,1.1,2.1,2.1,2.7
	c2.1,1.3,4.9,0.5,6.1-1.6c0,0,0,0,0,0c0.6-1.1,0.8-2.3,0.5-3.5c-0.4-1.2-0.9-2.4-1.5-3.6l0.5,1.1c-0.2-0.6-0.4-1.2-0.5-1.8l0.2,1.2
	c-0.1-0.6-0.1-1.2,0-1.8l-0.2,1.2c0-0.3,0.1-0.6,0.2-0.9c0.3-1.2,0.1-2.4-0.5-3.5c-1.3-2.1-4-2.9-6.2-1.6
	C539,445.7,538.3,446.6,538,447.8L538,447.8z"/>
<path d="M543.7,454.7l1.7-2.1l-7.1-5.4c-0.3,0.8-0.7,1.5-1.1,2.3l6.2-1.6l0,0l0.9,0.7l-0.1-0.1l0.7,0.9l-0.1-0.1l0.5,1.1
	c0-0.1,0-0.1,0-0.2l0.2,1.2c0-0.1,0-0.1,0-0.2l-0.2,1.2c0-0.1,0-0.2,0.1-0.2l-0.5,1.1c0.1-0.1,0.1-0.2,0.2-0.3l-0.7,0.9l0.3-0.4
	c0.3-0.4,0.7-0.8,0.9-1.3c0.1-0.3,0.3-0.6,0.5-0.8l-0.7,0.9l0.2-0.2l-0.9,0.7c0.1-0.1,0.2-0.1,0.3-0.1l-1.1,0.5
	c0.1,0,0.2-0.1,0.2-0.1l-1.2,0.2h0.2c0.6,0,1.2-0.1,1.7-0.4c1.1-0.4,2-1.3,2.4-2.4c0.3-0.5,0.4-1.1,0.4-1.7l-0.2-1.2
	c-0.2-0.8-0.6-1.4-1.2-2l-0.9-0.7c-0.7-0.4-1.5-0.6-2.3-0.6c-1,0-1.9,0.2-2.8,0.7c-0.4,0.2-0.8,0.5-1.1,0.9
	c-0.1,0.1-0.1,0.1-0.2,0.2c-0.4,0.4-0.7,0.9-1,1.4c-0.1,0.2-0.2,0.4-0.4,0.6l0.7-0.9c-0.3,0.5-0.7,0.9-1.1,1.4
	c-0.1,0.1-0.1,0.2-0.2,0.3c-0.1,0.2-0.2,0.4-0.2,0.6c-0.1,0.2-0.2,0.4-0.2,0.6v0.1c-0.2,0.9-0.2,1.9,0,2.8c0.1,0.4,0.3,0.8,0.5,1.2
	c0.4,0.7,1,1.3,1.7,1.7c0.5,0.3,1.1,0.5,1.7,0.5c0.6,0.1,1.2,0.1,1.8-0.1l1.1-0.5c0.7-0.4,1.2-0.9,1.6-1.6c0.4-0.8,0.8-1.5,1.1-2.3
	c0.6-1.1,0.7-2.3,0.5-3.5l-0.6-1.1c-0.3-0.5-0.7-1-1.2-1.3c-0.3-0.3-0.6-0.5-1-0.6c-0.5-0.3-1.1-0.4-1.7-0.4l-1.2,0.2
	c-0.8,0.2-1.4,0.6-2,1.1l-1.7,2.1c-0.4,0.4-0.7,0.9-0.9,1.4c-0.3,0.5-0.4,1.1-0.4,1.7c0,0.6,0.1,1.2,0.4,1.7
	c0.2,0.6,0.5,1.1,0.9,1.5l0.9,0.7c0.7,0.4,1.5,0.6,2.3,0.6l1.2-0.2C542.4,455.7,543.1,455.3,543.7,454.7L543.7,454.7z"/>
<path d="M496.6,466c-5.5,17.6-7.4,36.3-5.3,54.6l6.3-9.5c4,15.8,9.3,31.2,15.9,46.2l8.6-14.8c10.5,11,21.7,23.8,20,38.3
	c4-11.1,8.7-21.9,14.2-32.4c3.3,3.6,5.5,8.1,6.4,12.9c13.1-14.8,20.5-33.7,21-53.4c3.7,6.9,6.1,14.4,7,22.1
	c3.5-21.3-0.5-43.1-11.2-61.8"/>
<path d="M548.9,395.2c4-0.9,8.1,0.1,11.2,2.7c0.6,0.6,1.5,0.6,2.1,0c0.6-0.6,0.6-1.5,0-2.1c-3.9-3.4-9.1-4.7-14.1-3.5
	C546.2,392.7,547,395.6,548.9,395.2L548.9,395.2z"/>
<path d="M518.1,397.4c3.1-2.6,7.3-3.6,11.2-2.6c1.9,0.5,2.7-2.4,0.8-2.9c-5-1.2-10.2,0-14.1,3.4c-0.6,0.6-0.6,1.5-0.1,2.1
	C516.5,398,517.5,398.1,518.1,397.4C518.1,397.5,518.1,397.5,518.1,397.4L518.1,397.4z"/>
<ellipse transform="matrix(0.9911 -0.1335 0.1335 0.9911 -52.381 68.3523)" class="st4" cx="483.6" cy="424.9" rx="7.4" ry="13.7"/>
<ellipse transform="matrix(0.1821 -0.9833 0.9833 0.1821 72.7393 932.4984)" class="st4" cx="596.9" cy="422.5" rx="13.7" ry="7.4"/>
<path class="st5" d="M505.3,365.5h77.1c5.6,0,10,4.5,10,10v0c0,5.6-4.5,10-10,10h-77.1c-5.6,0-10-4.5-10-10v0
	C495.3,370,499.8,365.5,505.3,365.5z"/>
<ellipse class="st6" cx="545.5" cy="368.6" rx="51" ry="9.3"/>
<path class="st6" d="M502.4,370.2l-18-20.4c-1.2-1.4-2.6-3-2.5-5s1.4-3.2,2.7-4.4c10.5-8.8,25.6-7.4,37.9-13
	c7.5-3.5,14.3-9.7,22.5-10.3c5.7-0.4,11.2,2,16.4,4.4l38.1,17.1c3.7,1.7,8,4.4,7.8,8.6c-0.2,2.4-1.8,4.4-3.5,6.1l-11.4,12.3"/>
<ellipse class="st7" cx="547.1" cy="335.6" rx="4.7" ry="4.1"/>
<line class="st7" x1="546.6" y1="339.8" x2="546.6" y2="355.5"/>
<line class="st7" x1="538.6" y1="344.9" x2="555.4" y2="345.2"/>
<path class="st5" d="M534.1,352.7c2.2,1.1,4.4,2.2,6.6,3.2c2.1,1.1,4.5,1.6,6.8,1.5c4-0.4,6.2-3.8,9.8-5.1c1.8-0.7,1-3.6-0.8-2.9
	c-1.6,0.6-3,1.5-4.4,2.6c-1.3,1.1-2.8,1.9-4.4,2.4c-2,0.4-4.1-0.5-5.9-1.2c-2.1-0.9-4.2-2-6.3-3
	C533.9,349.3,532.4,351.9,534.1,352.7L534.1,352.7z"/>
<path class="st2" d="M544.4,461.7c19.4-0.6,38.8-2,58.2-4.3c3.9-0.5,8.5-1.6,9.5-5.4c0.7-2.7-0.9-5.3-2.4-7.6l-11.9-18.2l32.8-1.5
	c0.7-0.1,1.4,0,1.9,0.4c0.4,0.5,0.7,1.1,0.7,1.7c1.7,13,3.3,25.9,5,38.9l-67.3,7.7c-10.6,1.2-24.3,0.8-28.4-9.1
	c2-2.1,4.5-3.5,7.3-4.2"/>
<path class="st2" d="M544.4,463.2c14.5-0.4,29-1.3,43.4-2.7c3.6-0.3,7.2-0.7,10.8-1.1c2.9-0.2,5.7-0.6,8.5-1.3
	c2.3-0.6,4.3-1.9,5.7-3.9c1.6-2.6,0.9-5.7-0.4-8.3c-1.8-3.5-4.3-6.8-6.5-10.2l-6.7-10.4l-1.3,2.3l29.3-1.3c1.2,0,2.3-0.1,3.5-0.2
	c0.2,0,0.8-0.1,1,0.1s0.2,1,0.2,1.3c0.3,2.4,0.6,4.8,0.9,7.1l1.9,14.5l2.1,16.5l1.5-1.5l-45.3,5.2c-7.4,0.9-14.9,1.7-22.3,2.5
	c-4.9,0.7-9.9,0.6-14.8-0.1c-5.1-1-9.8-3.3-11.9-8.2l-0.2,1.8c1.8-1.9,4.1-3.2,6.6-3.8c0.8-0.3,1.2-1.2,0.9-1.9
	c-0.3-0.7-1-1.1-1.7-1c-3,0.8-5.8,2.4-7.9,4.6c-0.5,0.5-0.6,1.2-0.2,1.8c4.2,9.9,16.8,10.8,26.1,10.2c7.1-0.5,14.2-1.6,21.3-2.4
	l23.3-2.7l26.2-3c0.7-0.1,1.6-0.6,1.5-1.5c-1.3-10.4-2.7-20.8-4-31.2c-0.3-2.6-0.7-5.2-1-7.8c-0.3-2-1.3-3.3-3.4-3.4
	c-2.6,0-5.1,0.1-7.6,0.3l-8,0.4l-17.9,0.8c-0.8,0-1.5,0.7-1.5,1.5c0,0.2,0.1,0.5,0.2,0.7l11.1,17c1.5,2.2,4,5.4,2.8,8.2
	c-0.8,1.9-3,2.7-4.8,3.2c-2.7,0.6-5.5,1-8.3,1.2c-3.3,0.4-6.7,0.7-10.1,1c-6.7,0.6-13.5,1.2-20.2,1.6c-7.6,0.5-15.1,0.8-22.7,1
	C542.4,460.2,542.4,463.2,544.4,463.2L544.4,463.2z"/>
<path class="st8" d="M621.4,418c-4.1-4.9-8.4-10.3-10.1-16.6c-1.5-5.5,0-10.7,2.9-15.5c5-8.4,13.9-16.2,12.2-27
	c-1.8-11.2-13.6-16.9-18.5-26.4c-5.9-11.3-3-25.2-0.2-37c3.3-13.9,7.1-29.7-0.4-43c-0.9-1.7-3.5-0.2-2.6,1.5
	c6.7,11.9,3.5,26.4,0.5,38.9c-2.9,12-6,25.4-1.5,37.5c2,5.5,5.7,9.9,9.8,14.1c3.6,3.7,7.8,7.6,9.4,12.6c3.4,10.3-6,18.7-10.9,26.7
	c-3.3,5.4-5.2,11.3-3.7,17.6c1.6,7.2,6.5,13.2,11.1,18.7C620.5,421.6,622.6,419.4,621.4,418L621.4,418z"/>
<path class="st8" d="M622.1,399.3c-1.4-3.9-1.5-8.1-0.4-12c1.2-4.2,3.8-7.2,6.8-10.1s5.9-6.2,6.7-10.6c0.6-4.5,0.6-9,0-13.5
	c-0.3-4.4-1.4-8.7-3.1-12.7c-1.9-4-4.8-7.2-8-10.2s-6.5-5.9-8.8-9.7c-2.2-3.8-3.6-8-4.2-12.3c-1.6-11.1,1.5-22.2,4.4-32.8
	c0.2-0.8-0.3-1.6-1.1-1.8c-0.8-0.2-1.6,0.3-1.8,1.1l0,0c-2.7,9.7-5.4,19.7-4.8,29.9c0.5,8.9,3.5,17.4,9.8,23.8
	c3.1,3.2,6.8,5.9,9.4,9.5c2.5,3.6,4.2,7.7,4.8,12.1c0.8,4.5,1.1,9.1,0.8,13.6c-0.1,2.3-0.7,4.6-1.8,6.7c-1.1,1.7-2.5,3.3-4,4.7
	c-3.4,3.3-6.3,6.7-7.8,11.3c-1.4,4.6-1.3,9.5,0.3,14C619.9,401.9,622.8,401.1,622.1,399.3L622.1,399.3z"/>
<path class="st0" d="M747.8,709.5l12.1,32c1.1,2.9,4.1,5.2,7.4,4.2c2.9-0.9,5.4-4.2,4.2-7.4l-12.1-32c-1.1-2.9-4.1-5.2-7.4-4.2
	C749.1,703.1,746.6,706.4,747.8,709.5z"/>
<ellipse class="st9" cx="525" cy="719.7" rx="146.5" ry="149"/>
<ellipse class="st10" cx="523.5" cy="713.2" rx="48" ry="46.5"/>
<ellipse transform="matrix(0.5401 -0.8416 0.8416 0.5401 -352.368 567.9677)" class="st2" cx="343.5" cy="606.4" rx="22.4" ry="74"/>
<ellipse transform="matrix(0.8908 -0.4543 0.4543 0.8908 -189.221 254.1996)" class="st2" cx="434.4" cy="520.9" rx="22.4" ry="74"/>
<ellipse transform="matrix(3.996804e-02 -0.9992 0.9992 3.996804e-02 -413.5245 979.259)" class="st2" cx="302.8" cy="704.8" rx="22.4" ry="74"/>
<ellipse transform="matrix(0.5861 -0.8102 0.8102 0.5861 -166.0239 732.9572)" class="st2" cx="634.4" cy="529" rx="74" ry="22.4"/>
<ellipse transform="matrix(0.9021 -0.4316 0.4316 0.9021 -191.5899 373.5828)" class="st2" cx="727.4" cy="608.9" rx="74" ry="22.4"/>
<ellipse class="st2" cx="743.4" cy="718.9" rx="74" ry="22.4"/>
<ellipse transform="matrix(0.5401 -0.8416 0.8416 0.5401 -355.9081 670.0634)" class="st2" cx="435.1" cy="660.7" rx="11" ry="61.6"/>
<ellipse transform="matrix(4.396806e-02 -0.999 0.999 4.396806e-02 -327.8663 1096.2026)" class="st2" cx="408.8" cy="719.4" rx="11.9" ry="74"/>
<ellipse transform="matrix(0.8829 -0.4695 0.4695 0.8829 -228.6269 294.2629)" class="st2" cx="475.8" cy="605.6" rx="11" ry="74"/>
<ellipse transform="matrix(0.5861 -0.8102 0.8102 0.5861 -254.5637 724.7787)" class="st2" cx="582.1" cy="611.5" rx="74" ry="10.6"/>
<ellipse transform="matrix(0.9012 -0.4333 0.4333 0.9012 -224.0956 337.3651)" class="st2" cx="628" cy="660.3" rx="74" ry="9.4"/>
<ellipse class="st2" cx="636.7" cy="720.4" rx="74" ry="9.8"/>
</svg>
