<svg id="Layer_1" data-name="Layer 1" xmlns="http://www.w3.org/2000/svg" viewBox="0 0 1280 1024"><defs><style>.cls-1{fill:#29abe2;}.cls-2{fill:#333;}.cls-3{fill:#ed1c24;opacity:0.54;}.cls-4{fill:#fff;}.cls-5,.cls-6{fill:#603813;}.cls-5{opacity:0.48;}.cls-7{fill:none;stroke:#000;stroke-miterlimit:10;stroke-width:3px;}</style></defs><rect class="cls-1" width="1280" height="1024"/><path class="cls-2" d="M751,531c-42.13,27.59-42.52,41.52-70,59-39.19,24.93-81.81,24.22-95,24-101.64-1.7-172-90.7-180-121-1-3.88-29.64-45.71-33-55.36-5.58-16,11.89-35,31-56.64,66.17-74.95,51.67-68.45,73-86,57.91-47.64,107-55,107-55,85.6-14.07,156.83,86.94,214,168,10.41,14.76,24.37,37.16,18,59-3.48,11.95-12.1,20.48-25,33C774.08,516.41,759.29,525.57,751,531Z"/><path class="cls-3" d="M736.2,520.91c-38.09,24.94-38.44,37.53-63.29,53.34-35.44,22.54-74,21.9-85.89,21.7-91.9-1.54-155.55-82-162.75-109.4-.92-3.51-26.8-41.33-29.84-50.06-5-14.49,10.76-31.63,28-51.21,59.83-67.76,46.72-61.89,66-77.75,52.35-43.07,96.74-49.73,96.74-49.73C662.6,245.08,727,336.41,778.69,409.7c9.42,13.34,22,33.59,16.28,53.34-3.15,10.8-10.94,18.52-22.6,29.84C757.07,507.72,743.69,516,736.2,520.91Z"/><path class="cls-4" d="M597.55,256.52A48.69,48.69,0,0,1,598,270a49.63,49.63,0,0,1-8,22,107.82,107.82,0,0,1-15.56-31.6c3.19-.89,6.72-1.72,10.56-2.4A110.61,110.61,0,0,1,597.55,256.52Z"/><path class="cls-4" d="M532.94,275a31.74,31.74,0,0,1,5.14,29.58,35.9,35.9,0,0,1-24.29-16.08Z"/><path class="cls-4" d="M492.24,304.42a35.74,35.74,0,0,1,8.55,28.78,53.13,53.13,0,0,1-26-13.15Z"/><path class="cls-4" d="M439.6,364a30.43,30.43,0,0,1,6.4,7,31.24,31.24,0,0,1,5,17,23.27,23.27,0,0,1-15-2,22.79,22.79,0,0,1-8.73-7.9Z"/><path class="cls-4" d="M411.7,395.77A22.43,22.43,0,0,1,416,402a22.2,22.2,0,0,1,2,8,20.84,20.84,0,0,1-16.59.57Z"/><path class="cls-4" d="M665.44,279.37c-1.23,3.27-6.09,14.92-18.44,20.63a33.45,33.45,0,0,1-12,3,62.37,62.37,0,0,1,10.55-36Z"/><path class="cls-4" d="M710.16,320.8c-4.3,6.45-11.32,10.07-18.16,9.2a17.77,17.77,0,0,1-10-5,32.57,32.57,0,0,1,13.55-22.52Z"/><path class="cls-4" d="M748.5,364.64a14.61,14.61,0,0,1-4.68,4.73c-7.69,4.77-17.05,0-17.82-.37a29.76,29.76,0,0,1-.29-7.79,18.07,18.07,0,0,1,1.82-7.28c1.8-3.32,5.14-5,7.77-5.94Z"/><path class="cls-4" d="M779.6,411.59a74.1,74.1,0,0,1-21.52,1.89c-1.76-.1-3.45-.27-5.08-.48a70.75,70.75,0,0,1,14.77-21.63Q773.68,401.48,779.6,411.59Z"/><path class="cls-4" d="M797.81,447.23A46.19,46.19,0,0,1,786,449a46.88,46.88,0,0,1-18.17-3.32A26.4,26.4,0,0,0,772,441c3.76-5.4,3.2-9,6-12,1.59-1.7,4.61-3.56,10.91-3.44Q793.35,436.41,797.81,447.23Z"/><path class="cls-4" d="M420,456a4.1,4.1,0,0,1,2,2c.69,1.73-.4,3.63-.78,4.34-1.65,3-4.36,9.71-8.11,19.67l-14.95-25Z"/><path class="cls-4" d="M439,483a33.35,33.35,0,0,1,0,5c-.73,9.74-5.59,17-8.89,21l-14.95-25c2.09-1.3,10.42-6.14,19.27-3.24A18.53,18.53,0,0,1,439,483Z"/><path class="cls-4" d="M445.93,524c11.69-1.11,17-2.46,19.67-3.62.77-.33,3.68-1.69,4.88-.58A1.9,1.9,0,0,1,471,521a26.88,26.88,0,0,1-1,7,29.34,29.34,0,0,1-10.62,15.14Z"/><path class="cls-4" d="M474.38,552.46c2.9-3.12,9.71-9.51,19.62-10.46a26.07,26.07,0,0,1,5,0,23.16,23.16,0,0,1,1,5c.77,9.14-4.28,16.23-6.42,18.89Z"/><path class="cls-4" d="M509.91,578.5c1.24-2.74,7.42-15.81,17.6-16.56A12.35,12.35,0,0,1,530,562a7.18,7.18,0,0,1,1.76,1c6.73,5.5.58,22.36,0,24Z"/><path class="cls-4" d="M555.23,591.44c1.29-2.83,9-19.24,23.81-21.38a22.57,22.57,0,0,1,6-.06,18.72,18.72,0,0,1,3,6c2.92,10.14-4.14,19.27-5.24,20.65Z"/><path class="cls-4" d="M768.49,496.7q-3.42-9.68-6.55-20.07c-.67-2.22-1.32-4.44-1.94-6.63a41.12,41.12,0,0,1,4.1.49,45.77,45.77,0,0,1,21.42,10.11Z"/><path class="cls-4" d="M738.72,520.56a41.54,41.54,0,0,1-5.29-20.22A39.29,39.29,0,0,1,734,494a20.09,20.09,0,0,1,8,0c9.2,1.92,13.82,9.94,14.68,11.51Z"/><path class="cls-4" d="M699.93,550.57A82.69,82.69,0,0,1,689.1,527.8,81,81,0,0,1,687,519c1-.27,2-.48,3-.64,14.11-2.23,26.6,6.78,32.8,12.13Z"/><path class="cls-4" d="M662.29,582.17a72.17,72.17,0,0,1-2.69-18.79A68.84,68.84,0,0,1,660,555c.74.11,1.49.25,2.25.43,9.27,2.16,15.69,8.64,19.59,13.82Z"/><path class="cls-4" d="M630.26,593A115.1,115.1,0,0,1,638,567c1.09,1.1,2.19,2.27,3.28,3.5a86.56,86.56,0,0,1,11.79,17.1Z"/><path class="cls-4" d="M604.44,596.37c0-5.48,1-13.17,6.1-19.67.47-.6,1-1.17,1.46-1.7a18.06,18.06,0,0,1,2.4,1.31c7.39,4.82,9.31,13.85,9.88,17.8Z"/><path d="M397,442.25a342.22,342.22,0,0,1,96.2-1.61c8.76,1.09,17.55,2.54,25.82,5.5,9.94,3.56,18.89,9.2,27.68,14.86,32.13,20.66,57.83,55.74,56.71,56.75-.76.68-18.16-24.18-53.41-46.75-8.81-5.64-18.61-11.83-33-17-17.25-6.2-32.83-7.95-51-10-10.49-1.18-19.18-1.73-25-2"/><path d="M566,476.15c-.81-1.36,11.34-11.1,23.49-18.35,10.83-6.46,45.87-25.39,103.62-21.05,59.25,4.45,102,30.35,101.89,30.6A288,288,0,0,0,737,450a281.65,281.65,0,0,0-44-5c-13-.41-28.43-.81-48,3-13.18,2.57-22.68,6-34,10C583,468,566.89,477.64,566,476.15Z"/><path d="M573,355a27,27,0,0,1,5,15c0,5.82-2.24,7.73-5,18-2.58,9.6-4,15.37-1,20,1.81,2.76,5.3,5.22,9,5,4.8-.28,7.71-4.94,9-7a21.6,21.6,0,0,0,3-11c.38-7.93-2.62-10.08-2-16,.77-7.4,6.74-11.3,6-12s-6.9,2.36-9,8c-.71,1.89-.48,5.95,0,14a52.33,52.33,0,0,1,.11,7.86c-.28,3.88-.47,6.13-2.11,8.14s-4.87,3.95-7,3c-.62-.28-2.83-1.55-2.43-12.09A78.68,78.68,0,0,1,581,373"/><path class="cls-2" d="M753,267c-2.28-5.67,6.68-9.23,8-23,.24-2.51,1-12.23-5-21a30.73,30.73,0,0,0-10-9c-9.45-5.77-15.62-4.28-26-7-13.32-3.49-22.16-10.93-27-15-5.74-4.83-15.31-12.87-20-26-1.72-4.8-1.48-16.54-1-40,.25-12.26.63-18.7,0-29-.2-3.26-1-15-1-15h0c38.48,16,46,19,46,19,24.57,9.85,25.65,9.67,34,14,13.33,6.91,22.48,11.77,31,22s13.44,22.37,14.41,24.78A139.35,139.35,0,0,1,801,175c1.89,6.85,2.29,11,3,11,1.64-.05-3.54-22.47,8-36,3.14-3.68,4.78-3.51,23-12,16.58-7.73,24.88-11.6,33-17,10-6.61,18.51-12.3,25-23,7.29-12,6.91-22,10-22,4.51,0,7.93,21.35,9,28a192,192,0,0,1,2,38c-.49,12.13-.85,19.43-4,29a74.61,74.61,0,0,1-10,20,71.63,71.63,0,0,1-23,20c-41.15,23.82-78.22,20-86,41-2.65,7.14,0,12.06-5,17C777.14,277.78,756.15,274.82,753,267Z"/><path class="cls-5" d="M254,1030a370.72,370.72,0,0,1,48-60c12.32-12.48,30.34-28.94,96-72,56.71-37.19,53.4-31.55,105-65,70.45-45.67,81.54-59.36,110-60,21.12-.47,41.7,11,82,34,42.33,24.15,76.13,50.43,142,102,35.59,27.87,50.06,40.17,67,58a453.17,453.17,0,0,1,50,63"/><rect class="cls-6" x="250.54" y="930.49" width="11" height="99.49" transform="translate(-84.07 25.91) rotate(-4.98)"/><rect class="cls-6" x="299.84" y="875" width="11" height="97.95"/><rect class="cls-6" x="391" y="801.63" width="11" height="104.37"/><rect class="cls-6" x="503.84" y="740" width="11" height="99.59"/><rect class="cls-6" x="609.07" y="689.06" width="11" height="89.94"/><rect class="cls-6" x="714" y="740" width="11" height="92"/><rect class="cls-6" x="802.03" y="793" width="11" height="102"/><rect class="cls-6" x="897.26" y="862" width="11" height="113"/><rect class="cls-6" x="940.46" y="899" width="11" height="130.36"/><path class="cls-6" d="M202,1030H190l62.57-109.44,9.53,5.5Z"/><path class="cls-6" d="M256.77,931.08s-5.65-9.91-4.58-11l90.56-90.56,7.78,7.78Z"/><path class="cls-6" d="M346.1,839.23s-4.32-10.21-3.72-10.56L455.26,763.5l5.5,9.53Z"/><rect class="cls-6" x="529.18" y="637.35" width="11" height="186.06" transform="translate(949.75 -74.02) rotate(63.5)"/><path class="cls-6" d="M1065,1030l-11-1L934.92,896.57l8.28-7.25Z"/><rect class="cls-6" x="882.98" y="786.12" width="11" height="132.6" transform="translate(-333.08 1006.72) rotate(-51.01)"/><rect class="cls-6" x="774.48" y="711.35" width="11" height="132.6" transform="translate(-283.48 1064.31) rotate(-60)"/><rect class="cls-6" x="666.8" y="652.65" width="11" height="132.6" transform="translate(-272.83 993.91) rotate(-63.14)"/><path d="M676,796H558l-7,5H684Z"/><path d="M714,818H526l-8,5H714Z"/><path d="M754,844l-267-1-9,6H760Z"/><path d="M802,892H408l-6,4,400,1Z"/><path d="M874,939H338l-6,5H880Z"/><path d="M921,986H287l-4,5H925Z"/><path d="M897,959H313a5.13,5.13,0,0,0-2,3,4.72,4.72,0,0,0,0,2H897Z"/><path d="M937,1006H270l-3,5H940Z"/><path class="cls-7" d="M710.22,270.24a153.56,153.56,0,0,1,15.83-4.18c5.92-1.23,12.17-2.1,17.94-.26,3.21,1,6.11,2.84,9.14,4.33,16.63,8.17,36.76,5.93,53.94-1,5.33-2.15,10.48-4.73,15.93-6.54,22.17-7.38,46.58-1.48,69.61-5.38a15,15,0,0,0,6.51-2.29c1.86-1.38,3.11-3.84,2.41-6"/><path class="cls-7" d="M724.1,278.83a31.76,31.76,0,0,1,21.11-5.42c10.56,1.1,19.85,7.41,30.14,10,6.46,1.62,13.19,1.75,19.85,1.7,5.3,0,10.65-.18,15.76-1.56,6.84-1.86,12.89-5.82,18.81-9.73"/><path class="cls-7" d="M799.83,262.47c1-3.33,2.06-6.88,4.74-9.08a15,15,0,0,1,6.12-2.63,12.16,12.16,0,0,0,4.39-1.62c2.29-1.67,2.93-4.75,3.39-7.54"/><path class="cls-7" d="M745.22,253.19c-.22-4.76-3.72-8.81-7.77-11.31s-8.69-3.83-13.05-5.75-8.66-4.64-10.8-8.89"/><path class="cls-7" d="M754.12,243.84A83.75,83.75,0,0,0,737.69,222"/><path class="cls-7" d="M827.19,253.26a14.7,14.7,0,0,0,7-4.1c1.77-2.08,2.53-5.2,1.25-7.61"/><path class="cls-7" d="M732.29,551.6c3.37-7.14,12.83-8.37,20.71-8.61q65.73-2,131.5-2.42c4.27,0,8.66-.07,12.62-1.67,7.65-3.09,12.07-11.51,12.8-19.72s-1.55-16.38-3.81-24.31"/><path class="cls-7" d="M431.65,560.9c-14.5,13-36.75,10.29-55.91,6.77-10.44-1.92-21-3.86-30.79-7.86-13.79-5.62-25.73-15.08-39.43-20.92-3.49-1.48-7.19-2.74-11-2.55-11.27.58-20.57,13.65-31.37,10.4"/><path class="cls-7" d="M399.28,519.48c-4.21,1.65-9,.44-13.25-1a117.85,117.85,0,0,1-51.55-35.22c-4-4.73-7.67-9.83-12.48-13.74s-11.12-6.54-17.2-5.32"/><path class="cls-7" d="M385.71,538.35c-5.13-8.45-13.49-14.56-22.49-18.65s-18.7-6.34-28.34-8.57"/><path class="cls-7" d="M373.06,491.34a56.34,56.34,0,0,0-7.25-27"/><path class="cls-7" d="M391.5,489a51.15,51.15,0,0,0-3.9-12.37"/><path class="cls-7" d="M801.47,507.51a49,49,0,0,0,11.75-16.14"/><path class="cls-7" d="M785.22,522.83A76.38,76.38,0,0,1,817,520.14"/><path class="cls-7" d="M824.38,557.25a44,44,0,0,1,40.7-5c11.41,4.46,21.22,13.82,33.45,14.51,8,.45,15.76-3,22.5-7.36a83.35,83.35,0,0,0,18.35-16.15"/><path class="cls-7" d="M691.7,589c-.35-.64.34-1.43,1.06-1.48a3.28,3.28,0,0,1,2,.79l23,15.89a7.26,7.26,0,0,0,2.52-5.35"/><path class="cls-7" d="M715.79,578.21a69.09,69.09,0,0,0,20,1.77"/><path class="cls-7" d="M527.77,614.7a82.22,82.22,0,0,1-31,3.44"/><path class="cls-7" d="M477.37,595.89l-13.14.85"/><path class="cls-7" d="M97.6,336.1c2.58-7.74,9.18-13.68,16.66-16.91s15.8-4.05,24-4a82,82,0,0,1,26.27,4.08c25.35,8.81,45,33.82,71.87,34.27,4.89.08,10.12-.87,13.63-4.27s4.62-8.63,6.92-13,7.35-8.34,11.84-6.28"/><path class="cls-7" d="M233.51,287.9c8.33-6.16,16.9-12.45,26.86-15.32,14.26-4.1,29.61-.69,43.54,4.39a186.28,186.28,0,0,1,36.14,17.85c7.6,4.85,15.31,10.42,24.29,11.18,4.43.38,8.87-.46,13.21-1.39,19.34-4.12,40-11.24,50.34-28.07"/><path class="cls-7" d="M301.76,212.18c19.11,1.46,35.07-14.05,53.54-19.17,20.47-5.66,41.95,1.84,62.38,7.67a402.16,402.16,0,0,0,50.21,10.94c5.25.8,10.76,1.47,15.76-.31,5.41-1.92,9.42-6.39,13.71-10.2a68.48,68.48,0,0,1,25.24-14.19"/><path class="cls-7" d="M260.49,200.16A122.9,122.9,0,0,0,218,188.43c-8.06-.72-16.45-.58-23.83,2.72-16.51,7.39-23.87,28.47-40.73,35-8,3.11-16.93,2.39-25.45,1.28a315.55,315.55,0,0,1-63.7-15.21"/><path class="cls-7" d="M156.22,245.55A211.13,211.13,0,0,1,89,243.13c-6.71-1.33-13.4-3-20.23-3.24"/><path class="cls-7" d="M117.93,149.24c4.6-10.21,13.26-17.94,21.95-25A427.76,427.76,0,0,1,183.26,93.3C191.17,88.36,199.64,83.57,209,83c12.42-.73,23.84,6.15,34.52,12.53,17.1,10.21,36.28,20.07,56,17.09,25.92-3.93,43.56-28.47,67.68-38.78"/><path class="cls-7" d="M937,145.31a134.22,134.22,0,0,0,54,11.05c4.83,0,10.1-.49,13.66-3.76,4.68-4.3,4.59-11.57,4.16-17.91"/><path class="cls-7" d="M647.61,113.65a24,24,0,0,0-9.31-.58"/><path class="cls-7" d="M648.47,92a18.74,18.74,0,0,0-7.09-3.69"/><path class="cls-7" d="M697.06,70.43l2.33-2.32"/><path class="cls-7" d="M933.84,71.23l3.09-2.32"/><path class="cls-7" d="M892.12,63.49a6.34,6.34,0,0,0-1.63-3.84"/><path class="cls-7" d="M980.17,873.28c1.93-4.7,8.63-4.41,13.52-3,20.35,5.76,41.4,16.4,61.56,10,13-4.11,22.8-14.63,34.67-21.29A64,64,0,0,1,1133,852"/><path class="cls-7" d="M243.74,853.11A467.52,467.52,0,0,0,115.89,832c-2.14-.05-4.4-.06-6.27,1-2.39,1.36-3.54,4.11-5,6.44-6,9.49-18.62,12.92-29.68,11.16S54,842.84,44.45,837"/><path class="cls-7" d="M152.46,825.69A18.68,18.68,0,0,0,135,824.18c-2.81,1.22-5.26,3.12-7.88,4.7-5.1,3.07-10.83,4.91-16.5,6.73-10.52,3.36-21.56,6.77-32.43,4.8a34.24,34.24,0,0,1-21.86-14.18"/><path class="cls-7" d="M101.25,876.92a92.72,92.72,0,0,1,62.38-6.43c4.54,1.14,9,2.63,13.69,3,12.36,1,24.76-5.82,36.85-3"/><path class="cls-7" d="M854.89,773.08a360.34,360.34,0,0,0,78.75,50.82"/><path class="cls-7" d="M793.86,746.86c2.39-.92,4.52-2.43,6.86-3.49,7.16-3.23,15.47-1.92,23.12-.13a209.3,209.3,0,0,1,36,12c14.89,6.5,31.43,14.89,46.49,8.79"/><path class="cls-7" d="M385.26,694.25c-6.86,5.63-16.55,5.73-25.42,5.59q-56.37-.9-112.76-.06c-2.1,0-4.3.09-6.13,1.13-4.8,2.73-4,9.78-2.55,15.1"/><path class="cls-7" d="M428.53,716.19c-4.46-2.28-8.6,3.39-13.07,5.63-4.17,2.09-9.11,1.07-13.76.92a35.82,35.82,0,0,0-22.16,6.88c-4.21,3.1-7.78,7.16-12.48,9.47-6.64,3.28-14.45,2.57-21.85,2.13a245.28,245.28,0,0,0-52.63,2.52"/><path class="cls-7" d="M1038.54,611.16c.59-11.74,9.19-21.47,18.26-29,32.25-26.63,74.45-37.17,115.1-47,5.09-1.22,10.35-2.45,15.49-1.48,5.83,1.1,10.73,4.88,15.75,8a86.32,86.32,0,0,0,53.15,12.89c8.5-.74,18.88-5.1,18.76-13.64"/><path class="cls-7" d="M1066.16,451.17c10.58-9.69,25.52-9.33,39-8.05a630,630,0,0,1,138.32,29.07c6.9,2.28,14,4.7,21.12,3.65s14.28-6.61,15.37-14.7"/><path class="cls-7" d="M1118.66,502.76c8.78,4.84,18.52-3.82,27.89-7.38,14.64-5.56,30.58,1.84,45.9,5.08,14.23,3,29,2.38,43.48,1.72,3.13-.14,6.45-.34,9-2.12s3.84-4.58,5.91-6.76c6.84-7.18,18.59-5,28.13-2.28"/></svg>