<svg id="Layer_1" data-name="Layer 1" xmlns="http://www.w3.org/2000/svg" xmlns:xlink="http://www.w3.org/1999/xlink" viewBox="0 0 1368.02 887.24"><defs><style>.cls-1{fill:#29abe2;}.cls-2{fill:#fbcf3b;opacity:0.86;}.cls-3{fill:#fbb03b;opacity:0.75;}.cls-4{fill:url(#Summer);}.cls-5{fill:#754c24;}.cls-6{fill:#2e3192;}.cls-7{fill:#ffc4aa;}.cls-8{fill:#3fa9f5;}.cls-9{fill:#1b1464;}.cls-10,.cls-13,.cls-14{fill:none;stroke-miterlimit:10;}.cls-10{stroke:#3fa9f5;stroke-width:3px;}.cls-11{fill:#fff;}.cls-12{fill:#999;}.cls-13,.cls-14{stroke:#754c24;}.cls-13{stroke-width:37px;}.cls-14{stroke-width:17px;}</style><radialGradient id="Summer" cx="606.11" cy="316.86" r="146.67" gradientTransform="translate(-234.24 -61.36) scale(1.4 1.14)" gradientUnits="userSpaceOnUse"><stop offset="0" stop-color="#fff"/><stop offset="0.09" stop-color="#ffedd8"/><stop offset="0.21" stop-color="#ffd5a7"/><stop offset="0.33" stop-color="#ffc17d"/><stop offset="0.46" stop-color="#ffb05b"/><stop offset="0.59" stop-color="#ffa340"/><stop offset="0.72" stop-color="#ff9a2d"/><stop offset="0.86" stop-color="#ff9522"/><stop offset="1" stop-color="#ff931e"/></radialGradient><symbol id="New_Symbol" data-name="New Symbol" viewBox="0 0 771.93 427.77"><path class="cls-1" d="M7.56,31.19c23.2-12,50.37-11,75.24-5.53a275.37,275.37,0,0,1,39.31,12.07c12.25,4.66,24.69,9.6,38,10,24,.68,44-14.19,64.09-25.15,11.4-6.22,23.6-10.79,36.69-11.28,13.73-.52,27.25,2.4,40.33,6.33,25,7.54,49,19,75.27,21.71,27.61,2.81,51.47-8.56,76.16-19.09,12.13-5.17,25.15-10.29,38.53-10.33,12.69,0,23.83,5.16,34.31,11.86s21,14.6,33.4,17c12.66,2.46,24.85-1.18,35.94-7.23,12.88-7,24.68-15.7,39.32-18.77s30.08-1.19,44.69,1.52c29.45,5.49,59.63,14.94,89.5,6.49,6.18-1.75,3.55-11.4-2.66-9.64-26.78,7.58-54.18-.61-80.59-5.8C671.78,2.74,658.17.6,644.6,1.42A85.18,85.18,0,0,0,608.19,12.2C597,18.32,586.4,26.7,573.62,29.06,559.85,31.6,548.07,24.57,537,17.35c-10.56-6.88-21.17-13.72-33.74-16.22s-24.94-.64-36.91,3.2c-25.8,8.27-49.26,24.43-77,25.42-26.84,1-52-10.73-76.91-19C287.7,2.45,261.07-3.06,235.86,6.23c-22.29,8.21-40.77,25.69-64.37,30.51-14.7,3-28.84-1.83-42.44-7C114.78,24.29,100.41,19.28,85.46,16,57.83,10,28.23,9.28,2.52,22.55c-5.72,2.95-.67,11.59,5,8.64Z"/><path class="cls-1" d="M769.75,36.25v-.48H3.19v392H769.92V37.61A5.27,5.27,0,0,1,769.75,36.25Z"/><path class="cls-1" d="M8.41,40.69c33.1,1.46,67.23-10.61,99.65,0V31c-8.9,2-17.57-.92-26-3.57A149.63,149.63,0,0,0,56.79,21.6a134.22,134.22,0,0,0-50.49,3C1,25.94,1.91,34.91,7.63,34.42L80,28.16c2-.18,5.19-1,7.15-.34,2.17.71,3,3.53,4.27,5.24a22.44,22.44,0,0,0,8.8,7.36c7.68,3.65,16.57,3.6,24.88,3.06,6.39-.42,6.44-10.42,0-10-7.49.49-17.56,1.34-23.66-4-3.21-2.83-4.23-7.31-8-9.73-4-2.61-9-1.95-13.47-1.56L7.63,24.42,9,34.24a123.18,123.18,0,0,1,52.5-1.85c16.34,3.06,32.32,12.16,49.26,8.26,5-1.16,4.46-8.19,0-9.64C77.25,20.09,42.53,32.2,8.41,30.69,2,30.4,2,40.4,8.41,40.69Z"/><path class="cls-1" d="M221.65,46.65c19-10.75,41.67-17.51,63.64-13.91,22.82,3.74,42.62,18.2,66.42,17.09l-2.66-19.64c-19.23,2.67-39-.13-58.13-2.16-19.93-2.1-39.72-3.33-59.54.46l11.29,14.69a53.35,53.35,0,0,1,20.41-18.72c10-5.31,3.16-21.63-7.7-18.28A247.31,247.31,0,0,0,190.94,36.7C180.28,43.82,190.29,61.15,201,54a228.54,228.54,0,0,1,59.66-28.5L253,7.19a73.53,73.53,0,0,0-27.58,25.9c-5,7.92,3.22,16.24,11.29,14.69,19.07-3.65,38.74-1.41,57.87.64,20,2.15,39.74,3.84,59.8,1,11.16-1.55,8.5-20.16-2.66-19.64-11.53.54-22.23-3.42-32.85-7.49-11.81-4.53-23.3-8.56-36-9.94-24.76-2.71-49.94,4.88-71.34,17-11.21,6.34-1.14,23.63,10.09,17.27Z"/><path class="cls-1" d="M429.67,49.66c17.53-10.15,36.08-21.34,56.71-23.28,9.44-.89,19,.05,27.69,4,9.23,4.15,17.38,10.5,25.38,16.59l5-18.63c-45.32-3-90.59,1.51-135.57,6.79-5.36.63-10,4.14-10,10,0,4.91,4.6,10.63,10,10,45-5.28,90.25-9.83,135.57-6.79,4.33.29,8.53-3.31,9.64-7.34,1.27-4.63-1-8.57-4.59-11.3C540.79,23,532,16.42,521.8,12a72.49,72.49,0,0,0-35.42-5.64c-24.47,2.2-45.92,13.92-66.81,26-11.13,6.45-1.07,23.74,10.1,17.27Z"/><path class="cls-1" d="M470.32,36.23h27.11c12.87,0,12.89-20,0-20H470.32c-12.87,0-12.89,20,0,20Z"/><path class="cls-1" d="M762.27,20.4c-19.73-.22-39.5-.08-59.21-.88-16.08-.65-34.31.59-48.87-7.41l-5.05,18.64,30.54.31c13,.14,12.67-19,0-20a125.34,125.34,0,0,0-51.22,6.55A155.68,155.68,0,0,0,605,28.46c-6.23,3.42-13.44,8-20.79,5.91l4.42,16.72C608.36,32.54,636.86,23.47,663.71,28L659.3,11.24a147.63,147.63,0,0,1-31.87,24,10,10,0,0,0-4.1,12.49c2.13,4.85,6.74,6.65,11.8,5.79a270.73,270.73,0,0,0,39.29-9.64c10.94-3.59,31.61-9.63,23.19-25.45C691.56,7,674.29,17.11,680.34,28.48l.51.95-1.37-5.05v1l1.37-5.05c.11-.26-.29.18-2,.81-2.35.88-4.72,1.71-7.1,2.52q-6.67,2.28-13.49,4.19a274.14,274.14,0,0,1-28.48,6.34l7.71,18.28a167.68,167.68,0,0,0,35.92-27.09c4.94-4.88,3.21-15.44-4.41-16.71a111.18,111.18,0,0,0-94.57,28.27c-5.58,5.23-2.64,14.72,4.41,16.72,18.84,5.35,33.74-8.21,50-14.93a109.68,109.68,0,0,1,50.76-7.67v-20l-30.54-.31c-9.79-.1-13.79,13.83-5,18.63,16.92,9.29,36.36,9.22,55.14,10,21,.85,42,.81,63,1,12.88.15,12.89-19.85,0-20Z"/><path class="cls-1" d="M695,28.43l3.13,1a11.27,11.27,0,0,0,7.71-1,7.59,7.59,0,0,0,2.81-2.58,7.55,7.55,0,0,0,1.79-3.4,10.17,10.17,0,0,0-1-7.71l-1.57-2a9.85,9.85,0,0,0-4.41-2.57l-3.14-1a7.69,7.69,0,0,0-4-.18,7.47,7.47,0,0,0-3.72,1.19,7.59,7.59,0,0,0-2.81,2.58,7.55,7.55,0,0,0-1.79,3.4,10.14,10.14,0,0,0,1,7.7l1.56,2A10,10,0,0,0,695,28.43Z"/><path class="cls-1" d="M762.27,38.32c12.87,0,12.89-20,0-20s-12.89,20,0,20Z"/></symbol></defs><rect class="cls-2" x="1.52" width="1366.5" height="514.76"/><ellipse class="cls-3" cx="603.52" cy="276.94" rx="291.5" ry="216.7"/><ellipse class="cls-4" cx="616.02" cy="299.06" rx="207" ry="165.82"/><rect class="cls-1" x="1.02" y="559.54" width="1367" height="211.2"/><use width="771.93" height="427.77" transform="translate(-4.03 377.59) scale(1.78 0.52)" xlink:href="#New_Symbol"/><path class="cls-5" d="M359.32,686.14a8.25,8.25,0,0,0,.11,3.52C359.39,688.49,359.35,687.32,359.32,686.14Z" transform="translate(0.02 2.24)"/><path class="cls-6" d="M704.48,773.82a576.17,576.17,0,0,0-66.34-225c-4.78-8.92-9.93-17.88-17.49-24.6-8-7.13-18.24-11.26-28.4-14.74-39.61-13.57-86.18-18.32-121.09,4.8-27.5,18.21-42.36,50.05-54.07,80.89A858.18,858.18,0,0,0,370.5,773.68" transform="translate(0.02 2.24)"/><ellipse class="cls-7" cx="541.68" cy="420.55" rx="54.46" ry="69.63"/><ellipse cx="526.33" cy="412.87" rx="4.75" ry="12.61"/><ellipse cx="553.38" cy="413.24" rx="4.75" ry="12.61"/><path d="M518.86,446.28c1.26,8.05,6.81,15.1,14,18.83,6.7,3.5,18.46,5.36,22.9-2.52a29,29,0,0,0,2.45-7.33l2.44-9.66c.47-1.88-2.42-2.67-2.9-.8-1.16,4.63-2.09,9.41-3.59,13.95a8.55,8.55,0,0,1-3.19,4.75A11.4,11.4,0,0,1,545,465c-7.11.22-13.91-3.35-18.4-8.75a22.17,22.17,0,0,1-4.87-10.81c-.3-1.9-3.19-1.09-2.9.8Z" transform="translate(0.02 2.24)"/><path d="M539.07,425.76a85.42,85.42,0,0,1-6.56,14.45,1.52,1.52,0,0,0,.54,2.05,23,23,0,0,0,11.53,2.64c1.93-.06,1.94-3.06,0-3a19.93,19.93,0,0,1-10-2.23l.54,2.05A89.84,89.84,0,0,0,542,426.56c.64-1.83-2.26-2.62-2.89-.8Z" transform="translate(0.02 2.24)"/><path d="M542.93,451a23.58,23.58,0,0,0-21.9-9.72c-18.94,2.46-30.32,27-49.42,26.67-1.52,0-3.19-.3-4.19-1.45-2-2.3.25-6,3-7.36A13.25,13.25,0,0,1,484.94,461a14.88,14.88,0,0,0-12.17-8.91c-2.94-.25-6.26.63-7.76,3.17-1.17,2-1,4.42-.53,6.66a32.21,32.21,0,0,0,42.86,23.7c4.48-1.68,8.52-4.33,12.7-6.66a97.4,97.4,0,0,1,16.91-7.4,10.62,10.62,0,0,1,5.6-.71c2.45.57,4.18,2.67,5.91,4.5a42,42,0,0,0,37.27,12.32c7.88-1.41,15.16-5.07,22.3-8.69,6.56-3.31,13.8-7.48,15.46-14.64,1.8-7.77-5.61-16.18-13.54-15.37a9.38,9.38,0,0,0-7.09,4.05c-1.48,2.4-1.27,5.88.87,7.72,2.63-1.76,5.9-3.14,8.91-2.16s4.82,5.3,2.51,7.46a6.75,6.75,0,0,1-2.36,1.27c-5.21,1.95-11.11,3.41-16.23,1.24-5.9-2.5-8.9-8.89-12.79-14-9.57-12.48-28.64-17.72-41.95-9.35" transform="translate(0.02 2.24)"/><path d="M537.94,445.53a11.67,11.67,0,0,0-.1,5.51,23,23,0,0,0,1.65,4.1l-.46-1.08c.11.27.21.54.3.82a4.62,4.62,0,0,0,2.07,2.69,4.48,4.48,0,0,0,6.15-1.61,4.63,4.63,0,0,0,.46-3.47,36.76,36.76,0,0,0-1.52-3.61l.45,1.07a7.42,7.42,0,0,1-.51-1.8l.17,1.19a6.83,6.83,0,0,1,0-1.75l-.16,1.19c0-.29.11-.57.18-.86a4.65,4.65,0,0,0-.45-3.46,4.51,4.51,0,0,0-6.16-1.62,4.76,4.76,0,0,0-2.07,2.69Z" transform="translate(0.02 2.24)"/><path d="M543.66,452.49l1.67-2.07L538.26,445c-.35.77-.72,1.54-1.1,2.31l6.15-1.62,0,0,.91.7-.08-.09.7.91-.06-.1.46,1.08a.73.73,0,0,1-.05-.2l.16,1.2a.74.74,0,0,1,0-.21l-.16,1.19a2.17,2.17,0,0,1,.07-.24l-.45,1.07a1.73,1.73,0,0,1,.21-.34l-.71.91.29-.35a10.58,10.58,0,0,0,.94-1.26,8.52,8.52,0,0,1,.48-.83l-.7.91.25-.25-.91.7a1.1,1.1,0,0,1,.26-.15l-1.08.45a.94.94,0,0,1,.24-.06l-1.2.16h.2a3.44,3.44,0,0,0,1.73-.39,4,4,0,0,0,2.38-2.38,3.41,3.41,0,0,0,.39-1.73l-.16-1.2a4.52,4.52,0,0,0-1.16-2l-.91-.71a4.52,4.52,0,0,0-2.27-.61,5.1,5.1,0,0,0-2.77.71,5.5,5.5,0,0,0-1.14.86,1.45,1.45,0,0,0-.21.22,8.62,8.62,0,0,0-1,1.42,4.65,4.65,0,0,1-.36.61l.7-.91c-.35.45-.73.89-1.07,1.36a2.26,2.26,0,0,0-.16.26,5.89,5.89,0,0,0-.24.58c-.09.19-.17.38-.25.57l0,.13a5.43,5.43,0,0,0,0,2.8,6.17,6.17,0,0,0,.53,1.24,5.17,5.17,0,0,0,1.74,1.74,3.4,3.4,0,0,0,1.67.54,3.55,3.55,0,0,0,1.8-.08l1.07-.46a4.54,4.54,0,0,0,1.62-1.61c.38-.77.75-1.54,1.1-2.31a5.1,5.1,0,0,0,.45-3.47L546,445a3.38,3.38,0,0,0-1.16-1.27,2.26,2.26,0,0,0-1-.58,3.36,3.36,0,0,0-1.74-.38l-1.19.16a4.54,4.54,0,0,0-2,1.15l-1.67,2.08a3.51,3.51,0,0,0-.93,1.44,3.36,3.36,0,0,0-.38,1.74,3.31,3.31,0,0,0,.38,1.73,3.55,3.55,0,0,0,.93,1.45l.92.7a4.4,4.4,0,0,0,2.27.62l1.19-.16a4.56,4.56,0,0,0,2-1.16Z" transform="translate(0.02 2.24)"/><path d="M496.63,463.81a133.34,133.34,0,0,0-5.33,54.64l6.26-9.53a306.8,306.8,0,0,0,15.85,46.16L522,540.24c10.51,11,21.71,23.81,20,38.35a261.24,261.24,0,0,1,14.18-32.41,25.83,25.83,0,0,1,6.37,12.9,83.36,83.36,0,0,0,20.95-53.44,60.93,60.93,0,0,1,7,22.12A93.73,93.73,0,0,0,579.27,466" transform="translate(0.02 2.24)"/><path d="M548.87,392.94a12.68,12.68,0,0,1,11.2,2.73,1.54,1.54,0,0,0,2.12,0,1.51,1.51,0,0,0,0-2.12,15.82,15.82,0,0,0-14.11-3.5c-1.88.45-1.08,3.34.79,2.89Z" transform="translate(0.02 2.24)"/><path d="M518.07,395.19a12.71,12.71,0,0,1,11.24-2.57c1.87.47,2.67-2.42.8-2.9A15.87,15.87,0,0,0,516,393.07a1.5,1.5,0,1,0,2.12,2.12Z" transform="translate(0.02 2.24)"/><ellipse class="cls-7" cx="483.6" cy="422.67" rx="7.43" ry="13.7" transform="translate(-52.04 70.54) rotate(-7.67)"/><ellipse class="cls-7" cx="596.87" cy="420.3" rx="13.7" ry="7.43" transform="translate(74.93 932.9) rotate(-79.51)"/><rect class="cls-8" x="495.26" y="365.53" width="97.23" height="20.1" rx="10.05"/><ellipse class="cls-9" cx="545.52" cy="368.64" rx="50.99" ry="9.32"/><path class="cls-9" d="M502.41,368l-18-20.38c-1.25-1.41-2.57-3.05-2.48-5s1.39-3.24,2.72-4.35c10.48-8.81,25.59-7.37,37.86-13,7.54-3.46,14.26-9.68,22.45-10.27,5.68-.41,11.16,2,16.41,4.35l38.08,17.12c3.69,1.66,8,4.38,7.76,8.63-.16,2.42-1.85,4.37-3.45,6.1l-11.37,12.31" transform="translate(0.02 2.24)"/><ellipse class="cls-10" cx="547.07" cy="335.65" rx="4.66" ry="4.11"/><line class="cls-10" x1="546.62" y1="339.76" x2="546.62" y2="355.48"/><line class="cls-10" x1="538.58" y1="344.88" x2="555.39" y2="345.25"/><path class="cls-8" d="M534.1,350.47c2.2,1.08,4.38,2.22,6.64,3.19a14.61,14.61,0,0,0,6.82,1.53c4-.36,6.25-3.79,9.79-5.11,1.8-.66,1-3.56-.8-2.89a18.15,18.15,0,0,0-4.38,2.56,11.38,11.38,0,0,1-4.37,2.4c-2,.37-4.13-.47-5.9-1.24-2.14-.92-4.2-2-6.29-3-1.73-.85-3.25,1.74-1.51,2.59Z" transform="translate(0.02 2.24)"/><path class="cls-5" d="M544.39,459.42q29.16-.84,58.18-4.26c3.87-.46,8.55-1.62,9.55-5.39.71-2.66-.86-5.33-2.36-7.64L597.9,423.9l32.82-1.48a2.69,2.69,0,0,1,1.92.41,2.64,2.64,0,0,1,.67,1.73q2.51,19.43,5,38.86L571,471.13c-10.64,1.22-24.28.79-28.37-9.11a15,15,0,0,1,7.27-4.2" transform="translate(0.02 2.24)"/><path class="cls-5" d="M544.39,460.92q21.75-.63,43.43-2.69c3.61-.34,7.21-.71,10.82-1.12a47,47,0,0,0,8.51-1.33,9.75,9.75,0,0,0,5.67-3.86c1.62-2.62.94-5.69-.4-8.26-1.83-3.54-4.32-6.82-6.49-10.16l-6.74-10.36-1.29,2.26,29.34-1.32c1.16-.05,2.32-.13,3.48-.16.24,0,.77-.09.95.07s.2,1,.24,1.31c.31,2.38.61,4.76.92,7.13l1.87,14.51,2.13,16.48,1.5-1.5L593,467.11c-7.44.85-14.89,1.73-22.34,2.55a50.48,50.48,0,0,1-14.83-.14c-5.09-.95-9.8-3.27-11.93-8.25l-.23,1.81a14.09,14.09,0,0,1,6.61-3.81,1.51,1.51,0,0,0-.8-2.9,17.13,17.13,0,0,0-7.94,4.59,1.57,1.57,0,0,0-.23,1.82c4.22,9.9,16.85,10.82,26.14,10.18,7.13-.5,14.25-1.56,21.35-2.37l23.26-2.67,26.23-3c.73-.09,1.62-.63,1.5-1.5q-2-15.62-4-31.23c-.34-2.61-.66-5.22-1-7.83-.26-2-1.28-3.33-3.38-3.44a75.08,75.08,0,0,0-7.64.32l-8,.35-17.9.81a1.52,1.52,0,0,0-1.3,2.26l11.06,17c1.45,2.23,4.05,5.39,2.85,8.23-.78,1.87-3,2.71-4.79,3.19a58.14,58.14,0,0,1-8.31,1.18q-5,.56-10.09,1-10.08.95-20.21,1.59-11.36.72-22.72,1.05c-1.93.05-1.94,3.05,0,3Z" transform="translate(0.02 2.24)"/><path class="cls-11" d="M667.16,434.77c14.53,9.48,35.68,2,45.05-12.64s9-33.64,4.08-50.27-13.9-31.73-21.09-47.51c-12.29-27-18.83-60.41-2.2-84.92,18.34-27,56.82-31.41,88.93-25.4,39.65,7.44,78.6,28.38,98.71,63.36C891,295.44,895.88,316.26,897.29,337c5,73.75-33.38,146-89.3,194.37-11.26,9.74-23.5,18.81-37.62,23.53s-30.48,4.59-43.09-3.32c-19.8-12.4-24.57-38.53-28.85-61.5s-13-49.21-35.08-56.7" transform="translate(0.02 2.24)"/><path class="cls-12" d="M621.37,415.76c-4.11-4.93-8.43-10.26-10.11-16.58-1.47-5.54,0-10.71,2.9-15.49,5-8.37,13.9-16.25,12.2-27-1.78-11.18-13.64-16.87-18.55-26.38-5.86-11.34-3-25.17-.19-37,3.32-13.93,7.07-29.74-.36-43-.94-1.68-3.53-.17-2.59,1.52,6.67,11.94,3.48,26.38.49,38.92-2.86,12-6,25.44-1.52,37.48,2.05,5.54,5.72,9.86,9.76,14.06,3.6,3.72,7.75,7.58,9.44,12.63,3.43,10.28-6,18.74-10.93,26.66-3.34,5.36-5.16,11.27-3.73,17.58,1.62,7.16,6.47,13.17,11.07,18.68,1.24,1.48,3.35-.65,2.12-2.12Z" transform="translate(0.02 2.24)"/><path class="cls-12" d="M622.07,397.06a19.35,19.35,0,0,1-.41-12c1.2-4.16,3.77-7.16,6.81-10.11s5.86-6.19,6.67-10.61a47.63,47.63,0,0,0,0-13.49A39.48,39.48,0,0,0,632,338.17c-1.87-4-4.83-7.21-8-10.2s-6.5-5.9-8.77-9.73A34,34,0,0,1,611,305.89c-1.63-11.09,1.47-22.19,4.37-32.79a1.5,1.5,0,0,0-2.9-.79c-2.65,9.7-5.38,19.7-4.83,29.86.49,8.91,3.51,17.42,9.85,23.83,3.12,3.16,6.75,5.88,9.42,9.46a28.66,28.66,0,0,1,4.85,12.09,58.15,58.15,0,0,1,.8,13.63,14.49,14.49,0,0,1-1.84,6.69,24.14,24.14,0,0,1-4,4.69c-3.41,3.32-6.33,6.7-7.75,11.34a22.22,22.22,0,0,0,.3,14c.65,1.8,3.55,1,2.89-.8Z" transform="translate(0.02 2.24)"/><path class="cls-1" d="M747.73,707.31l12.07,32c1.11,2.93,4.1,5.25,7.38,4.19,2.86-.93,5.38-4.24,4.19-7.38l-12.07-32c-1.1-2.93-4.1-5.25-7.38-4.19-2.86.93-5.38,4.24-4.19,7.38Z" transform="translate(0.02 2.24)"/><ellipse class="cls-13" cx="525.02" cy="719.74" rx="146.5" ry="149"/><ellipse class="cls-14" cx="523.52" cy="713.24" rx="48" ry="46.5"/><ellipse class="cls-5" cx="343.47" cy="604.15" rx="22.42" ry="73.97" transform="translate(-350.47 569.16) rotate(-57.31)"/><ellipse class="cls-5" cx="434.35" cy="518.69" rx="22.42" ry="73.97" transform="translate(-188.19 256.13) rotate(-27.02)"/><ellipse class="cls-5" cx="303.35" cy="705.69" rx="22.42" ry="73.97" transform="matrix(0.04, -1, 1, 0.04, -414.98, 979.95)"/><ellipse class="cls-5" cx="634.35" cy="526.69" rx="73.97" ry="22.42" transform="translate(-164.15 734.27) rotate(-54.12)"/><ellipse class="cls-5" cx="727.35" cy="606.69" rx="73.97" ry="22.42" transform="translate(-190.6 375.61) rotate(-25.57)"/><ellipse class="cls-5" cx="743.37" cy="718.93" rx="73.97" ry="22.42"/><ellipse class="cls-5" cx="435.11" cy="658.44" rx="11.04" ry="61.61" transform="translate(-354.01 671.25) rotate(-57.31)"/><ellipse class="cls-5" cx="408.81" cy="717.17" rx="11.9" ry="73.97" transform="translate(-325.63 1096.29) rotate(-87.48)"/><ellipse class="cls-5" cx="475.79" cy="603.34" rx="11.05" ry="73.97" transform="translate(-227.55 296.27) rotate(-28)"/><ellipse class="cls-5" cx="582.08" cy="609.27" rx="73.97" ry="10.59" transform="translate(-252.7 726.09) rotate(-54.12)"/><ellipse class="cls-5" cx="628" cy="658.04" rx="73.97" ry="9.37" transform="translate(-223.11 339.37) rotate(-25.68)"/><ellipse class="cls-5" cx="636.66" cy="720.44" rx="73.97" ry="9.81"/></svg>