<svg id="Layer_1" data-name="Layer 1" xmlns="http://www.w3.org/2000/svg" xmlns:xlink="http://www.w3.org/1999/xlink" viewBox="0 0 1370.05 766.82"><defs><style>.cls-1{fill:#29abe2;}.cls-2{fill:#f7931e;}.cls-3{fill:#f15a24;}.cls-4{fill:none;stroke:#f15a24;stroke-miterlimit:10;stroke-width:9px;}.cls-5{fill:#754c24;}.cls-6{fill:#aadee9;}.cls-7{opacity:0.92;}.cls-8{fill:#fff;}.cls-9{opacity:0.59;}.cls-10{opacity:0.42;}</style><symbol id="New_Symbol_1" data-name="New Symbol 1" viewBox="0 0 453.43 378.43"><rect class="cls-2" x="100.93" y="312.53" width="352" height="15"/><path class="cls-2" d="M109.51,326a34.46,34.46,0,0,1,19.31,31.7c-.07,1.88-.22,4,1.05,5.4a6.6,6.6,0,0,0,3.34,1.59c69.76,17.82,142.94,14.44,214.85,10.94,10.9-.53,21.94-1.08,32.36-4.32,24.72-7.66,42.32-29,58.42-49.23"/><rect class="cls-2" x="290.43" y="303.03" width="97" height="11"/><rect class="cls-2" x="332.43" y="297.03" width="112" height="17"/><rect class="cls-3" x="100.43" y="312.03" width="353" height="6"/><rect class="cls-3" x="290.43" y="302.03" width="154" height="4"/><rect class="cls-3" x="331.43" y="293.05" width="117" height="3.97"/><ellipse class="cls-3" cx="54.93" cy="300.03" rx="4" ry="57.5" transform="translate(-247.9 263.61) rotate(-72.77)"/><path class="cls-3" d="M345.26,290.73c31.52-8.53,72.74-7.4,102.17,2.79l-113,.51"/><path class="cls-3" d="M345.56,291.82a173.35,173.35,0,0,1,40-5.58,193.91,193.91,0,0,1,40.75,3,144.21,144.21,0,0,1,20.86,5.39l.3-2.21-88.11.4-24.89.11a1.13,1.13,0,0,0,0,2.25l88.11-.4,24.89-.11a1.13,1.13,0,0,0,.3-2.21,161.19,161.19,0,0,0-38.65-7.77,200.67,200.67,0,0,0-42.08.74,163.61,163.61,0,0,0-22,4.25,1.13,1.13,0,0,0,.6,2.17Z"/><line class="cls-4" x1="200.93" y1="0.03" x2="198.93" y2="312.03"/><line class="cls-4" x1="346.93" y1="4.53" x2="347.93" y2="293.03"/><path class="cls-3" d="M196,8.67c-6.76,20.68-16.1,40.38-26.47,59.47-10.55,19.44-22.09,38.32-33.42,57.31l-36,60.42c-11,18.35-21.52,37-33.3,54.83-10.59,16-22.66,31.4-37.94,43.22-1.88,1.46-3.82,2.85-5.79,4.19-1.59,1.08-.09,3.68,1.51,2.59,16.12-10.94,29-25.72,40.11-41.59,12-17.18,22.37-35.54,33.11-53.54l36.34-60.9c11.57-19.41,23.38-38.7,34.39-58.44,10.58-19,20.33-38.48,27.71-58.95.94-2.59,1.83-5.19,2.69-7.81.6-1.84-2.3-2.63-2.9-.8Z"/><path class="cls-3" d="M203.47,14.41c18.52,6.83,37.11,13.69,56.41,18,18.18,4.08,37,5.8,55.5,3.19A103.7,103.7,0,0,0,344.73,27c1.75-.81.22-3.4-1.52-2.59-16.34,7.61-34.59,10.09-52.49,9.29-18.94-.85-37.48-5.45-55.46-11.26-10.43-3.37-20.71-7.16-31-11-1.81-.67-2.59,2.23-.79,2.9Z"/><path class="cls-3" d="M341.62,26.2c3.7,17.71,11,34.34,18.07,50.9q11,25.64,21.27,51.56T400.85,181q9.54,26.16,18.35,52.58t17,53.31c.67,2.22,1.34,4.45,2,6.67.56,1.84,3.45,1.06,2.9-.8q-8-26.79-16.79-53.37t-18.18-52.64q-9.48-26.33-19.71-52.37-10.14-25.86-21-51.44C358.32,66.19,350.6,49.59,346,32c-.56-2.18-1.07-4.36-1.53-6.56-.39-1.89-3.29-1.09-2.89.8Z"/><path class="cls-5" d="M168.28,55.49c.49,9.35.95,18.9-1.59,27.91S158,101,149.13,103.86L225.7,112c1.45-9.71-.58-19.55-1.64-29.32s-1-20.23,4.09-28.63a202.15,202.15,0,0,1-59.65.69"/><path class="cls-5" d="M161.21,124.52c.59,11.28,1.15,22.8-1.92,33.67s-10.45,21.17-21.18,24.68l92.37,9.86c1.74-11.72-.7-23.59-2-35.37s-1.19-24.4,4.93-34.54a244.12,244.12,0,0,1-72,.83"/><path class="cls-5" d="M154.66,214.85c.7,13.45,1.37,27.19-2.29,40.15s-12.46,25.25-25.26,29.44l110.15,11.74c2.08-14-.83-28.13-2.35-42.17s-1.43-29.1,5.87-41.19a290.71,290.71,0,0,1-85.81,1"/><path class="cls-5" d="M311.39,57.25c.58,11.28,1.14,22.8-1.92,33.67S299,112.09,288.28,115.6l92.38,9.85c1.74-11.71-.7-23.58-2-35.36s-1.2-24.4,4.93-34.54a244.12,244.12,0,0,1-72,.83"/><path class="cls-5" d="M304.39,165.25c.58,11.28,1.14,22.8-1.92,33.67S292,220.09,281.28,223.6l92.38,9.85c1.74-11.71-.7-23.58-2-35.36s-1.2-24.4,4.93-34.54a244.12,244.12,0,0,1-72,.83"/></symbol><symbol id="New_Symbol" data-name="New Symbol" viewBox="0 0 771.93 427.77"><path class="cls-1" d="M7.56,31.19c23.2-12,50.37-11,75.24-5.53a275.37,275.37,0,0,1,39.31,12.07c12.25,4.66,24.69,9.6,38,10,24,.68,44-14.19,64.09-25.15,11.4-6.22,23.6-10.79,36.69-11.28,13.73-.52,27.25,2.4,40.33,6.33,25,7.54,49,19,75.27,21.71,27.61,2.81,51.47-8.56,76.16-19.09,12.13-5.17,25.15-10.29,38.53-10.33,12.69,0,23.83,5.16,34.31,11.86s21,14.6,33.4,17c12.66,2.46,24.85-1.18,35.94-7.23,12.88-7,24.68-15.7,39.32-18.77s30.08-1.19,44.69,1.52c29.45,5.49,59.63,14.94,89.5,6.49,6.18-1.75,3.55-11.4-2.66-9.64-26.78,7.58-54.18-.61-80.59-5.8C671.78,2.74,658.17.6,644.6,1.42A85.18,85.18,0,0,0,608.19,12.2C597,18.32,586.4,26.7,573.62,29.06,559.85,31.6,548.07,24.57,537,17.35c-10.56-6.88-21.17-13.72-33.74-16.22s-24.94-.64-36.91,3.2c-25.8,8.27-49.26,24.43-77,25.42-26.84,1-52-10.73-76.91-19C287.7,2.45,261.07-3.06,235.86,6.23c-22.29,8.21-40.77,25.69-64.37,30.51-14.7,3-28.84-1.83-42.44-7C114.78,24.29,100.41,19.28,85.46,16,57.83,10,28.23,9.28,2.52,22.55c-5.72,2.95-.67,11.59,5,8.64Z"/><path class="cls-1" d="M769.75,36.25v-.48H3.19v392H769.92V37.61A5.27,5.27,0,0,1,769.75,36.25Z"/><path class="cls-1" d="M8.41,40.69c33.1,1.46,67.23-10.61,99.65,0V31c-8.9,2-17.57-.92-26-3.57A149.63,149.63,0,0,0,56.79,21.6a134.22,134.22,0,0,0-50.49,3C1,25.94,1.91,34.91,7.63,34.42L80,28.16c2-.18,5.19-1,7.15-.34,2.17.71,3,3.53,4.27,5.24a22.44,22.44,0,0,0,8.8,7.36c7.68,3.65,16.57,3.6,24.88,3.06,6.39-.42,6.44-10.42,0-10-7.49.49-17.56,1.34-23.66-4-3.21-2.83-4.23-7.31-8-9.73-4-2.61-9-1.95-13.47-1.56L7.63,24.42,9,34.24a123.18,123.18,0,0,1,52.5-1.85c16.34,3.06,32.32,12.16,49.26,8.26,5-1.16,4.46-8.19,0-9.64C77.25,20.09,42.53,32.2,8.41,30.69,2,30.4,2,40.4,8.41,40.69Z"/><path class="cls-1" d="M221.65,46.65c19-10.75,41.67-17.51,63.64-13.91,22.82,3.74,42.62,18.2,66.42,17.09l-2.66-19.64c-19.23,2.67-39-.13-58.13-2.16-19.93-2.1-39.72-3.33-59.54.46l11.29,14.69a53.35,53.35,0,0,1,20.41-18.72c10-5.31,3.16-21.63-7.7-18.28A247.31,247.31,0,0,0,190.94,36.7C180.28,43.82,190.29,61.15,201,54a228.54,228.54,0,0,1,59.66-28.5L253,7.19a73.53,73.53,0,0,0-27.58,25.9c-5,7.92,3.22,16.24,11.29,14.69,19.07-3.65,38.74-1.41,57.87.64,20,2.15,39.74,3.84,59.8,1,11.16-1.55,8.5-20.16-2.66-19.64-11.53.54-22.23-3.42-32.85-7.49-11.81-4.53-23.3-8.56-36-9.94-24.76-2.71-49.94,4.88-71.34,17-11.21,6.34-1.14,23.63,10.09,17.27Z"/><path class="cls-1" d="M429.67,49.66c17.53-10.15,36.08-21.34,56.71-23.28,9.44-.89,19,.05,27.69,4,9.23,4.15,17.38,10.5,25.38,16.59l5-18.63c-45.32-3-90.59,1.51-135.57,6.79-5.36.63-10,4.14-10,10,0,4.91,4.6,10.63,10,10,45-5.28,90.25-9.83,135.57-6.79,4.33.29,8.53-3.31,9.64-7.34,1.27-4.63-1-8.57-4.59-11.3C540.79,23,532,16.42,521.8,12a72.49,72.49,0,0,0-35.42-5.64c-24.47,2.2-45.92,13.92-66.81,26-11.13,6.45-1.07,23.74,10.1,17.27Z"/><path class="cls-1" d="M470.32,36.23h27.11c12.87,0,12.89-20,0-20H470.32c-12.87,0-12.89,20,0,20Z"/><path class="cls-1" d="M762.27,20.4c-19.73-.22-39.5-.08-59.21-.88-16.08-.65-34.31.59-48.87-7.41l-5.05,18.64,30.54.31c13,.14,12.67-19,0-20a125.34,125.34,0,0,0-51.22,6.55A155.68,155.68,0,0,0,605,28.46c-6.23,3.42-13.44,8-20.79,5.91l4.42,16.72C608.36,32.54,636.86,23.47,663.71,28L659.3,11.24a147.63,147.63,0,0,1-31.87,24,10,10,0,0,0-4.1,12.49c2.13,4.85,6.74,6.65,11.8,5.79a270.73,270.73,0,0,0,39.29-9.64c10.94-3.59,31.61-9.63,23.19-25.45C691.56,7,674.29,17.11,680.34,28.48l.51.95-1.37-5.05v1l1.37-5.05c.11-.26-.29.18-2,.81-2.35.88-4.72,1.71-7.1,2.52q-6.67,2.28-13.49,4.19a274.14,274.14,0,0,1-28.48,6.34l7.71,18.28a167.68,167.68,0,0,0,35.92-27.09c4.94-4.88,3.21-15.44-4.41-16.71a111.18,111.18,0,0,0-94.57,28.27c-5.58,5.23-2.64,14.72,4.41,16.72,18.84,5.35,33.74-8.21,50-14.93a109.68,109.68,0,0,1,50.76-7.67v-20l-30.54-.31c-9.79-.1-13.79,13.83-5,18.63,16.92,9.29,36.36,9.22,55.14,10,21,.85,42,.81,63,1,12.88.15,12.89-19.85,0-20Z"/><path class="cls-1" d="M695,28.43l3.13,1a11.27,11.27,0,0,0,7.71-1,7.59,7.59,0,0,0,2.81-2.58,7.55,7.55,0,0,0,1.79-3.4,10.17,10.17,0,0,0-1-7.71l-1.57-2a9.85,9.85,0,0,0-4.41-2.57l-3.14-1a7.69,7.69,0,0,0-4-.18,7.47,7.47,0,0,0-3.72,1.19,7.59,7.59,0,0,0-2.81,2.58,7.55,7.55,0,0,0-1.79,3.4,10.14,10.14,0,0,0,1,7.7l1.56,2A10,10,0,0,0,695,28.43Z"/><path class="cls-1" d="M762.27,38.32c12.87,0,12.89-20,0-20s-12.89,20,0,20Z"/></symbol></defs><rect class="cls-6" x="1.05" y="0.79" width="1366" height="560.01"/><rect class="cls-6" x="422.9" width="430.95" height="560.01"/><use width="453.43" height="378.43" transform="translate(444.54 337.22) scale(0.56)" xlink:href="#New_Symbol_1"/><g class="cls-7"><path class="cls-8" d="M450.32,251c-2-9.82,5.78-19.66,15.29-22.85s20-1.14,29.43,2.2c2.68-9.06,9.25-17.31,18.22-20.26s20.14.57,24.43,9c1.09-7.17,3.56-14.36,8.46-19.72s12.54-8.57,19.59-6.83c5.87,1.44,10.57,6.07,13.43,11.4s4.1,11.37,5.11,17.33c11-7,27.18-4,34.93,6.51,1.5,2,2.81,4.35,5.07,5.45s5,.66,7.56.68a20.17,20.17,0,0,1,19.08,16.36" transform="translate(2.05 -1.21)"/><path class="cls-8" d="M451.76,250.55c-1.28-6.6,2.3-13,7.29-17.11,6.06-5,14.17-6,21.75-5.14a64.77,64.77,0,0,1,13.84,3.45,1.52,1.52,0,0,0,1.85-1.05c2.07-6.87,6.36-13.3,12.57-17.07a20.67,20.67,0,0,1,19.44-1.23,16.79,16.79,0,0,1,7.89,7.39c.56,1.07,2.55.93,2.75-.36,1.51-9.71,5.68-19.91,15.16-24.25a16.68,16.68,0,0,1,13.35-.5,21.33,21.33,0,0,1,9.86,9.29c3.07,5.39,4.29,11.59,5.32,17.64a1.51,1.51,0,0,0,2.21.89c8.33-5.19,19.44-4.53,27.5.9a22.41,22.41,0,0,1,5.2,4.85c1.66,2.14,3,4.67,5.45,6,2.8,1.56,6,1,9,1.07a17.13,17.13,0,0,1,7.35,2,18.79,18.79,0,0,1,9.93,13.29c.33,1.9,3.22,1.09,2.89-.8a21.45,21.45,0,0,0-8.9-13.61,21.07,21.07,0,0,0-7.38-3.33,19.56,19.56,0,0,0-3.89-.51c-1.69-.05-3.39.18-5.08,0-3.32-.33-4.79-3-6.6-5.42a26.41,26.41,0,0,0-5.5-5.47,29.06,29.06,0,0,0-14.71-5.43,27.21,27.21,0,0,0-16.78,3.85l2.21.9c-1.83-10.71-5.12-23.06-15.72-28.33-9.89-4.92-21.18.14-27.21,8.61-3.67,5.15-5.59,11.36-6.56,17.55l2.75-.36c-3.52-6.74-11-10.49-18.39-10.75-8.08-.28-15.58,3.95-20.58,10.14a36,36,0,0,0-6.43,12.23l1.85-1c-8.64-3-18.07-5-27.17-3a25.84,25.84,0,0,0-17.67,13.39,19,19,0,0,0-1.73,12.14c.37,1.89,3.26,1.09,2.89-.8Z" transform="translate(2.05 -1.21)"/></g><g class="cls-9"><path class="cls-8" d="M593.88,239.32c-2-9.82,5.79-19.66,15.29-22.85s20-1.14,29.43,2.2c2.68-9.06,9.25-17.31,18.23-20.26s20.14.57,24.42,9c1.09-7.17,3.56-14.36,8.46-19.72s12.54-8.57,19.59-6.83c5.88,1.44,10.58,6.07,13.43,11.4s4.1,11.37,5.11,17.33c11-7,27.18-4,34.94,6.51,1.49,2,2.81,4.35,5.06,5.45s5,.66,7.56.68a20.17,20.17,0,0,1,19.08,16.36" transform="translate(2.05 -1.21)"/><path class="cls-8" d="M595.33,238.92c-1.29-6.6,2.29-13,7.28-17.11,6.06-5,14.17-6,21.75-5.14a64.77,64.77,0,0,1,13.84,3.45,1.52,1.52,0,0,0,1.85-1.05c2.07-6.87,6.36-13.3,12.57-17.07a20.67,20.67,0,0,1,19.44-1.23,16.81,16.81,0,0,1,7.9,7.39c.56,1.07,2.54.93,2.74-.36,1.51-9.71,5.69-19.91,15.16-24.25a16.71,16.71,0,0,1,13.36-.5,21.36,21.36,0,0,1,9.85,9.29c3.07,5.39,4.29,11.6,5.33,17.64a1.5,1.5,0,0,0,2.2.89c8.33-5.19,19.45-4.53,27.51.9a22.61,22.61,0,0,1,5.2,4.85c1.66,2.14,3,4.67,5.45,6,2.79,1.56,6,1,9,1.07a17.13,17.13,0,0,1,7.34,2A18.76,18.76,0,0,1,793,239c.33,1.9,3.23,1.09,2.9-.8a21.49,21.49,0,0,0-8.9-13.61,21.23,21.23,0,0,0-7.38-3.33,19.65,19.65,0,0,0-3.89-.51c-1.69,0-3.4.18-5.08,0-3.33-.33-4.79-3-6.61-5.42a26.36,26.36,0,0,0-5.49-5.47,29.13,29.13,0,0,0-14.71-5.43,27.18,27.18,0,0,0-16.78,3.85l2.2.9c-1.83-10.71-5.12-23.06-15.72-28.33-9.88-4.92-21.17.14-27.21,8.61-3.67,5.15-5.59,11.36-6.55,17.55l2.74-.36c-3.52-6.74-11-10.49-18.38-10.75-8.09-.28-15.58,3.95-20.59,10.14a35.79,35.79,0,0,0-6.42,12.23l1.84-1c-8.63-3-18.07-5-27.17-3a25.84,25.84,0,0,0-17.67,13.39,19,19,0,0,0-1.73,12.14c.37,1.89,3.26,1.09,2.9-.8Z" transform="translate(2.05 -1.21)"/></g><polygon class="cls-5" points="1367.05 485.1 979.05 485.1 979.05 486.28 979.05 498.49 979.05 546.13 993.31 546.13 993.31 498.49 1113.13 498.49 1113.13 548.49 1127.4 548.49 1127.4 498.49 1261.49 498.49 1261.49 554.79 1275.75 554.79 1275.75 498.49 1367.05 498.49 1367.05 485.1"/><g class="cls-7"><path class="cls-8" d="M1017.1,202.71c-2-9.81,5.79-19.66,15.29-22.84s20-1.15,29.43,2.2c2.68-9.06,9.25-17.32,18.23-20.26s20.14.57,24.42,9c1.09-7.18,3.56-14.37,8.46-19.73s12.54-8.57,19.59-6.83c5.88,1.45,10.58,6.07,13.43,11.4s4.1,11.37,5.11,17.33c11-7,27.18-4,34.94,6.52,1.49,2,2.81,4.35,5.07,5.44s5,.66,7.55.69A20.15,20.15,0,0,1,1217.7,202" transform="translate(2.05 -1.21)"/><path class="cls-8" d="M1018.55,202.32c-1.29-6.61,2.29-13,7.28-17.12,6.06-5,14.17-6,21.75-5.13a65,65,0,0,1,13.85,3.44,1.51,1.51,0,0,0,1.84-1c2.08-6.88,6.36-13.31,12.57-17.07a20.67,20.67,0,0,1,19.44-1.24,16.83,16.83,0,0,1,7.9,7.4c.56,1.07,2.54.93,2.74-.36,1.51-9.72,5.69-19.91,15.17-24.25a16.68,16.68,0,0,1,13.35-.51,21.28,21.28,0,0,1,9.85,9.3c3.07,5.38,4.3,11.59,5.33,17.63a1.51,1.51,0,0,0,2.2.9c8.34-5.2,19.45-4.53,27.51.9a22.57,22.57,0,0,1,5.2,4.84c1.66,2.14,3,4.67,5.45,6,2.8,1.57,6,1,9,1.07a17.27,17.27,0,0,1,7.34,2,18.76,18.76,0,0,1,9.93,13.29c.33,1.9,3.23,1.1,2.9-.79a21.89,21.89,0,0,0-16.28-17,20.43,20.43,0,0,0-3.89-.51c-1.69-.05-3.39.18-5.08,0-3.33-.32-4.79-3-6.61-5.41a26.41,26.41,0,0,0-5.49-5.48,29.1,29.1,0,0,0-14.71-5.43,27.27,27.27,0,0,0-16.78,3.86l2.2.89c-1.83-10.71-5.12-23.06-15.72-28.33-9.88-4.92-21.17.15-27.21,8.62-3.66,5.14-5.59,11.35-6.55,17.54l2.74-.36c-3.52-6.73-11-10.49-18.38-10.74-8.09-.28-15.58,3.95-20.59,10.13a35.92,35.92,0,0,0-6.42,12.24l1.84-1c-8.63-3-18.07-5-27.17-3A25.89,25.89,0,0,0,1017.38,191a19,19,0,0,0-1.72,12.14c.36,1.9,3.26,1.09,2.89-.79Z" transform="translate(2.05 -1.21)"/></g><g class="cls-10"><path class="cls-8" d="M653.18,302.78c-.93-4.5,2.66-9,7-10.48s9.16-.53,13.5,1c1.23-4.16,4.24-7.94,8.35-9.29s9.24.26,11.21,4.12a17.13,17.13,0,0,1,3.87-9.05c2.25-2.46,5.76-3.93,9-3.13a10.09,10.09,0,0,1,6.16,5.23,25.68,25.68,0,0,1,2.34,7.95,12.41,12.41,0,0,1,16,3,7.13,7.13,0,0,0,2.32,2.49,8,8,0,0,0,3.47.32,9.25,9.25,0,0,1,8.75,7.5" transform="translate(2.05 -1.21)"/><path class="cls-8" d="M654.63,302.38c-.66-3.66,2.25-7.12,5.47-8.45,4.23-1.74,9.06-.61,13.2.83a1.52,1.52,0,0,0,1.84-1.05c1.14-3.69,3.79-7.24,7.63-8.34A8,8,0,0,1,692,288.9c.57,1.06,2.54.94,2.74-.36.81-5.07,3.67-11.39,9.73-11.29s7.93,7.52,8.75,12.29a1.5,1.5,0,0,0,2.2.89,11,11,0,0,1,14.53,3.24,5.82,5.82,0,0,0,3.77,2.71c1.53.24,3.06-.1,4.57.33a7.87,7.87,0,0,1,5.49,6.13c.35,1.89,3.24,1.09,2.89-.8a10.73,10.73,0,0,0-6.08-7.65,11,11,0,0,0-4.9-.94,3.29,3.29,0,0,1-2.53-.55,19.73,19.73,0,0,1-1.72-2.23,14,14,0,0,0-17.53-2.83l2.2.9c-.59-3.46-1.39-7-3.51-9.91a10.48,10.48,0,0,0-8.13-4.58c-7.41-.12-11.59,7-12.62,13.49l2.74-.36c-2.31-4.29-7.64-6.14-12.25-5-5,1.24-8.58,5.75-10,10.52l1.85-1.05c-5.13-1.78-11.13-2.83-16.17-.21-4.21,2.18-7,6.75-6.19,11.53.34,1.89,3.23,1.09,2.89-.8Z" transform="translate(2.05 -1.21)"/></g><g class="cls-10"><path class="cls-8" d="M1185.18,185.78c-.93-4.5,2.66-9,7-10.48s9.16-.53,13.5,1c1.23-4.16,4.24-7.94,8.35-9.29s9.24.26,11.21,4.12a17.13,17.13,0,0,1,3.87-9c2.25-2.46,5.76-3.93,9-3.13a10.09,10.09,0,0,1,6.16,5.23,25.68,25.68,0,0,1,2.34,7.95,12.41,12.41,0,0,1,16,3,7.13,7.13,0,0,0,2.32,2.49,8,8,0,0,0,3.47.32,9.25,9.25,0,0,1,8.75,7.5" transform="translate(2.05 -1.21)"/><path class="cls-8" d="M1186.63,185.38c-.66-3.66,2.25-7.12,5.47-8.45,4.23-1.74,9.06-.61,13.2.83a1.52,1.52,0,0,0,1.84-1c1.14-3.69,3.79-7.24,7.63-8.34a8,8,0,0,1,9.19,3.53c.57,1.06,2.54.94,2.74-.36.81-5.07,3.67-11.39,9.73-11.29s7.93,7.52,8.75,12.29a1.5,1.5,0,0,0,2.2.89,11,11,0,0,1,14.53,3.24,5.82,5.82,0,0,0,3.77,2.71c1.53.24,3.06-.1,4.57.33a7.87,7.87,0,0,1,5.49,6.13c.35,1.89,3.24,1.09,2.89-.8a10.73,10.73,0,0,0-6.08-7.65,11,11,0,0,0-4.9-.94,3.29,3.29,0,0,1-2.53-.55,19.73,19.73,0,0,1-1.72-2.23,14,14,0,0,0-17.53-2.83l2.2.9c-.59-3.46-1.39-7-3.51-9.91a10.48,10.48,0,0,0-8.13-4.58c-7.41-.12-11.59,7-12.62,13.49l2.74-.36c-2.31-4.29-7.64-6.14-12.25-5-5,1.24-8.58,5.75-10,10.52l1.85-1c-5.13-1.78-11.13-2.83-16.17-.21-4.21,2.18-7,6.75-6.19,11.53.34,1.89,3.23,1.09,2.89-.8Z" transform="translate(2.05 -1.21)"/></g><use width="771.93" height="427.77" transform="translate(-4.05 527.01) scale(1.78 0.56)" xlink:href="#New_Symbol"/></svg>