<svg id="Layer_1" data-name="Layer 1" xmlns="http://www.w3.org/2000/svg" xmlns:xlink="http://www.w3.org/1999/xlink" viewBox="0 0 1383 769.49"><defs><style>.cls-1{fill:#29abe2;}.cls-2{fill:#f7931e;}.cls-3{fill:#f15a24;}.cls-4{fill:none;stroke:#f15a24;stroke-miterlimit:10;stroke-width:9px;}.cls-5{fill:#754c24;}.cls-6{fill:#fbcf3b;opacity:0.86;}.cls-7{fill:#fbb03b;opacity:0.75;}.cls-8{fill:url(#Summer);}.cls-9{fill:#4d4d4d;}</style><radialGradient id="Summer" cx="619.01" cy="363.25" r="146" gradientTransform="translate(-167.61 -46.91) scale(1.29 1.1)" gradientUnits="userSpaceOnUse"><stop offset="0" stop-color="#fff"/><stop offset="0.09" stop-color="#ffedd8"/><stop offset="0.21" stop-color="#ffd5a7"/><stop offset="0.33" stop-color="#ffc17d"/><stop offset="0.46" stop-color="#ffb05b"/><stop offset="0.59" stop-color="#ffa340"/><stop offset="0.72" stop-color="#ff9a2d"/><stop offset="0.86" stop-color="#ff9522"/><stop offset="1" stop-color="#ff931e"/></radialGradient><symbol id="New_Symbol" data-name="New Symbol" viewBox="0 0 771.93 427.77"><path class="cls-1" d="M7.56,31.19c23.2-12,50.37-11,75.24-5.53a275.37,275.37,0,0,1,39.31,12.07c12.25,4.66,24.69,9.6,38,10,24,.68,44-14.19,64.09-25.15,11.4-6.22,23.6-10.79,36.69-11.28,13.73-.52,27.25,2.4,40.33,6.33,25,7.54,49,19,75.27,21.71,27.61,2.81,51.47-8.56,76.16-19.09,12.13-5.17,25.15-10.29,38.53-10.33,12.69,0,23.83,5.16,34.31,11.86s21,14.6,33.4,17c12.66,2.46,24.85-1.18,35.94-7.23,12.88-7,24.68-15.7,39.32-18.77s30.08-1.19,44.69,1.52c29.45,5.49,59.63,14.94,89.5,6.49,6.18-1.75,3.55-11.4-2.66-9.64-26.78,7.58-54.18-.61-80.59-5.8C671.78,2.74,658.17.6,644.6,1.42A85.18,85.18,0,0,0,608.19,12.2C597,18.32,586.4,26.7,573.62,29.06,559.85,31.6,548.07,24.57,537,17.35c-10.56-6.88-21.17-13.72-33.74-16.22s-24.94-.64-36.91,3.2c-25.8,8.27-49.26,24.43-77,25.42-26.84,1-52-10.73-76.91-19C287.7,2.45,261.07-3.06,235.86,6.23c-22.29,8.21-40.77,25.69-64.37,30.51-14.7,3-28.84-1.83-42.44-7C114.78,24.29,100.41,19.28,85.46,16,57.83,10,28.23,9.28,2.52,22.55c-5.72,2.95-.67,11.59,5,8.64Z"/><path class="cls-1" d="M769.75,36.25v-.48H3.19v392H769.92V37.61A5.27,5.27,0,0,1,769.75,36.25Z"/><path class="cls-1" d="M8.41,40.69c33.1,1.46,67.23-10.61,99.65,0V31c-8.9,2-17.57-.92-26-3.57A149.63,149.63,0,0,0,56.79,21.6a134.22,134.22,0,0,0-50.49,3C1,25.94,1.91,34.91,7.63,34.42L80,28.16c2-.18,5.19-1,7.15-.34,2.17.71,3,3.53,4.27,5.24a22.44,22.44,0,0,0,8.8,7.36c7.68,3.65,16.57,3.6,24.88,3.06,6.39-.42,6.44-10.42,0-10-7.49.49-17.56,1.34-23.66-4-3.21-2.83-4.23-7.31-8-9.73-4-2.61-9-1.95-13.47-1.56L7.63,24.42,9,34.24a123.18,123.18,0,0,1,52.5-1.85c16.34,3.06,32.32,12.16,49.26,8.26,5-1.16,4.46-8.19,0-9.64C77.25,20.09,42.53,32.2,8.41,30.69,2,30.4,2,40.4,8.41,40.69Z"/><path class="cls-1" d="M221.65,46.65c19-10.75,41.67-17.51,63.64-13.91,22.82,3.74,42.62,18.2,66.42,17.09l-2.66-19.64c-19.23,2.67-39-.13-58.13-2.16-19.93-2.1-39.72-3.33-59.54.46l11.29,14.69a53.35,53.35,0,0,1,20.41-18.72c10-5.31,3.16-21.63-7.7-18.28A247.31,247.31,0,0,0,190.94,36.7C180.28,43.82,190.29,61.15,201,54a228.54,228.54,0,0,1,59.66-28.5L253,7.19a73.53,73.53,0,0,0-27.58,25.9c-5,7.92,3.22,16.24,11.29,14.69,19.07-3.65,38.74-1.41,57.87.64,20,2.15,39.74,3.84,59.8,1,11.16-1.55,8.5-20.16-2.66-19.64-11.53.54-22.23-3.42-32.85-7.49-11.81-4.53-23.3-8.56-36-9.94-24.76-2.71-49.94,4.88-71.34,17-11.21,6.34-1.14,23.63,10.09,17.27Z"/><path class="cls-1" d="M429.67,49.66c17.53-10.15,36.08-21.34,56.71-23.28,9.44-.89,19,.05,27.69,4,9.23,4.15,17.38,10.5,25.38,16.59l5-18.63c-45.32-3-90.59,1.51-135.57,6.79-5.36.63-10,4.14-10,10,0,4.91,4.6,10.63,10,10,45-5.28,90.25-9.83,135.57-6.79,4.33.29,8.53-3.31,9.64-7.34,1.27-4.63-1-8.57-4.59-11.3C540.79,23,532,16.42,521.8,12a72.49,72.49,0,0,0-35.42-5.64c-24.47,2.2-45.92,13.92-66.81,26-11.13,6.45-1.07,23.74,10.1,17.27Z"/><path class="cls-1" d="M470.32,36.23h27.11c12.87,0,12.89-20,0-20H470.32c-12.87,0-12.89,20,0,20Z"/><path class="cls-1" d="M762.27,20.4c-19.73-.22-39.5-.08-59.21-.88-16.08-.65-34.31.59-48.87-7.41l-5.05,18.64,30.54.31c13,.14,12.67-19,0-20a125.34,125.34,0,0,0-51.22,6.55A155.68,155.68,0,0,0,605,28.46c-6.23,3.42-13.44,8-20.79,5.91l4.42,16.72C608.36,32.54,636.86,23.47,663.71,28L659.3,11.24a147.63,147.63,0,0,1-31.87,24,10,10,0,0,0-4.1,12.49c2.13,4.85,6.74,6.65,11.8,5.79a270.73,270.73,0,0,0,39.29-9.64c10.94-3.59,31.61-9.63,23.19-25.45C691.56,7,674.29,17.11,680.34,28.48l.51.95-1.37-5.05v1l1.37-5.05c.11-.26-.29.18-2,.81-2.35.88-4.72,1.71-7.1,2.52q-6.67,2.28-13.49,4.19a274.14,274.14,0,0,1-28.48,6.34l7.71,18.28a167.68,167.68,0,0,0,35.92-27.09c4.94-4.88,3.21-15.44-4.41-16.71a111.18,111.18,0,0,0-94.57,28.27c-5.58,5.23-2.64,14.72,4.41,16.72,18.84,5.35,33.74-8.21,50-14.93a109.68,109.68,0,0,1,50.76-7.67v-20l-30.54-.31c-9.79-.1-13.79,13.83-5,18.63,16.92,9.29,36.36,9.22,55.14,10,21,.85,42,.81,63,1,12.88.15,12.89-19.85,0-20Z"/><path class="cls-1" d="M695,28.43l3.13,1a11.27,11.27,0,0,0,7.71-1,7.59,7.59,0,0,0,2.81-2.58,7.55,7.55,0,0,0,1.79-3.4,10.17,10.17,0,0,0-1-7.71l-1.57-2a9.85,9.85,0,0,0-4.41-2.57l-3.14-1a7.69,7.69,0,0,0-4-.18,7.47,7.47,0,0,0-3.72,1.19,7.59,7.59,0,0,0-2.81,2.58,7.55,7.55,0,0,0-1.79,3.4,10.14,10.14,0,0,0,1,7.7l1.56,2A10,10,0,0,0,695,28.43Z"/><path class="cls-1" d="M762.27,38.32c12.87,0,12.89-20,0-20s-12.89,20,0,20Z"/></symbol><symbol id="New_Symbol_1" data-name="New Symbol 1" viewBox="0 0 453.43 378.43"><rect class="cls-2" x="100.93" y="312.53" width="352" height="15"/><path class="cls-2" d="M109.51,326a34.46,34.46,0,0,1,19.31,31.7c-.07,1.88-.22,4,1.05,5.4a6.6,6.6,0,0,0,3.34,1.59c69.76,17.82,142.94,14.44,214.85,10.94,10.9-.53,21.94-1.08,32.36-4.32,24.72-7.66,42.32-29,58.42-49.23"/><rect class="cls-2" x="290.43" y="303.03" width="97" height="11"/><rect class="cls-2" x="332.43" y="297.03" width="112" height="17"/><rect class="cls-3" x="100.43" y="312.03" width="353" height="6"/><rect class="cls-3" x="290.43" y="302.03" width="154" height="4"/><rect class="cls-3" x="331.43" y="293.05" width="117" height="3.97"/><ellipse class="cls-3" cx="54.93" cy="300.03" rx="4" ry="57.5" transform="translate(-247.9 263.61) rotate(-72.77)"/><path class="cls-3" d="M345.26,290.73c31.52-8.53,72.74-7.4,102.17,2.79l-113,.51"/><path class="cls-3" d="M345.56,291.82a173.35,173.35,0,0,1,40-5.58,193.91,193.91,0,0,1,40.75,3,144.21,144.21,0,0,1,20.86,5.39l.3-2.21-88.11.4-24.89.11a1.13,1.13,0,0,0,0,2.25l88.11-.4,24.89-.11a1.13,1.13,0,0,0,.3-2.21,161.19,161.19,0,0,0-38.65-7.77,200.67,200.67,0,0,0-42.08.74,163.61,163.61,0,0,0-22,4.25,1.13,1.13,0,0,0,.6,2.17Z"/><line class="cls-4" x1="200.93" y1="0.03" x2="198.93" y2="312.03"/><line class="cls-4" x1="346.93" y1="4.53" x2="347.93" y2="293.03"/><path class="cls-3" d="M196,8.67c-6.76,20.68-16.1,40.38-26.47,59.47-10.55,19.44-22.09,38.32-33.42,57.31l-36,60.42c-11,18.35-21.52,37-33.3,54.83-10.59,16-22.66,31.4-37.94,43.22-1.88,1.46-3.82,2.85-5.79,4.19-1.59,1.08-.09,3.68,1.51,2.59,16.12-10.94,29-25.72,40.11-41.59,12-17.18,22.37-35.54,33.11-53.54l36.34-60.9c11.57-19.41,23.38-38.7,34.39-58.44,10.58-19,20.33-38.48,27.71-58.95.94-2.59,1.83-5.19,2.69-7.81.6-1.84-2.3-2.63-2.9-.8Z"/><path class="cls-3" d="M203.47,14.41c18.52,6.83,37.11,13.69,56.41,18,18.18,4.08,37,5.8,55.5,3.19A103.7,103.7,0,0,0,344.73,27c1.75-.81.22-3.4-1.52-2.59-16.34,7.61-34.59,10.09-52.49,9.29-18.94-.85-37.48-5.45-55.46-11.26-10.43-3.37-20.71-7.16-31-11-1.81-.67-2.59,2.23-.79,2.9Z"/><path class="cls-3" d="M341.62,26.2c3.7,17.71,11,34.34,18.07,50.9q11,25.64,21.27,51.56T400.85,181q9.54,26.16,18.35,52.58t17,53.31c.67,2.22,1.34,4.45,2,6.67.56,1.84,3.45,1.06,2.9-.8q-8-26.79-16.79-53.37t-18.18-52.64q-9.48-26.33-19.71-52.37-10.14-25.86-21-51.44C358.32,66.19,350.6,49.59,346,32c-.56-2.18-1.07-4.36-1.53-6.56-.39-1.89-3.29-1.09-2.89.8Z"/><path class="cls-5" d="M168.28,55.49c.49,9.35.95,18.9-1.59,27.91S158,101,149.13,103.86L225.7,112c1.45-9.71-.58-19.55-1.64-29.32s-1-20.23,4.09-28.63a202.15,202.15,0,0,1-59.65.69"/><path class="cls-5" d="M161.21,124.52c.59,11.28,1.15,22.8-1.92,33.67s-10.45,21.17-21.18,24.68l92.37,9.86c1.74-11.72-.7-23.59-2-35.37s-1.19-24.4,4.93-34.54a244.12,244.12,0,0,1-72,.83"/><path class="cls-5" d="M154.66,214.85c.7,13.45,1.37,27.19-2.29,40.15s-12.46,25.25-25.26,29.44l110.15,11.74c2.08-14-.83-28.13-2.35-42.17s-1.43-29.1,5.87-41.19a290.71,290.71,0,0,1-85.81,1"/><path class="cls-5" d="M311.39,57.25c.58,11.28,1.14,22.8-1.92,33.67S299,112.09,288.28,115.6l92.38,9.85c1.74-11.71-.7-23.58-2-35.36s-1.2-24.4,4.93-34.54a244.12,244.12,0,0,1-72,.83"/><path class="cls-5" d="M304.39,165.25c.58,11.28,1.14,22.8-1.92,33.67S292,220.09,281.28,223.6l92.38,9.85c1.74-11.71-.7-23.58-2-35.36s-1.2-24.4,4.93-34.54a244.12,244.12,0,0,1-72,.83"/></symbol></defs><rect class="cls-6" x="2" width="1380" height="559.5"/><ellipse class="cls-7" cx="626" cy="324.49" rx="259" ry="213.99"/><ellipse class="cls-8" cx="631" cy="350.92" rx="189.5" ry="158.93"/><rect class="cls-1" y="415.42" width="1383" height="354.07"/><use width="771.93" height="427.77" transform="translate(-4.09 348.32) scale(1.8 0.56)" xlink:href="#New_Symbol"/><use width="453.43" height="378.43" transform="translate(696.95 198.78) rotate(42.94) scale(0.52)" xlink:href="#New_Symbol_1"/><use width="453.43" height="378.43" transform="matrix(0.29, -0.4, 0.4, 0.29, 306.92, 627.29)" xlink:href="#New_Symbol_1"/><path class="cls-1" d="M439.78,694.57A265.05,265.05,0,0,1,477,686.82l-9.57,1.29a263.4,263.4,0,0,1,51.45-1.81c4,.25,8.1.67,12.16.88,7.18.39,14-.53,21.14-1.65a30.68,30.68,0,0,0,5.75-1.46c3.6-1.32,7.16-2.86,10.64-4.48.77-.35,1.52-.75,2.25-1.17,4-2.32,7.58-5.44,11.12-8.27a48.77,48.77,0,0,0,3.8-3.38c5.53-5.4,10.11-11.72,16.24-16.51l-7.29,5.63a50.49,50.49,0,0,1,10.78-6.27l-8.6,3.63a68,68,0,0,1,17.29-4.53L604.59,650c23-3,45.72,3.61,68.72,3.48a94.41,94.41,0,0,0,10.36-.6A148.54,148.54,0,0,0,703,649.8a40.24,40.24,0,0,0,21.51-16.54l3.63-8.6a27.27,27.27,0,0,0,.64-14.35,18,18,0,0,0-2.45-9.09,27.17,27.17,0,0,0-7.45-11.59L711.59,584a35.84,35.84,0,0,0-18.17-4.92,317.9,317.9,0,0,0-46.2,7.69,252.37,252.37,0,0,0-35.71,11.94c-8.43,3.53-16.81,7.08-25,11.21-5.08,2.58-10.08,5.32-15,8.13-9.9,5.63-19.62,11.57-29.47,17.29a303.88,303.88,0,0,1-33.86,17.42l8.6-3.63a138.79,138.79,0,0,1-35.07,10l9.57-1.28a111.45,111.45,0,0,1-29.25,0l9.57,1.28a111.68,111.68,0,0,1-27.85-7.56l8.6,3.62q-1.75-.74-3.48-1.53a26.8,26.8,0,0,0-13.38-4.27,32.28,32.28,0,0,0-26.6,7.09,27.15,27.15,0,0,0-9.27,10.1l-3.63,8.6a36.35,36.35,0,0,0,0,19.14l3.63,8.6a36.14,36.14,0,0,0,12.91,12.91,77.34,77.34,0,0,0,13.54,5.78c4.64,1.49,10.05,1.85,14.69,2.43a45.06,45.06,0,0,0,11.19-.15,167.72,167.72,0,0,0,20.86-3.59c4-1,8-2.18,11.95-3.24a105.82,105.82,0,0,1,13.16-2.79l-9.57,1.28a43.72,43.72,0,0,1,11.37-.12l-9.57-1.29a30.08,30.08,0,0,1,7.4,2l-8.6-3.63c.81.35,1.6.74,2.37,1.16l-7.28-56.54q-6.18,5.07-12.5,10l7.29-5.63q-7.43,5.71-15,11.17-3.76,2.68-7.57,5.3a46.41,46.41,0,0,1-7.65,4.74l8.6-3.63a11.2,11.2,0,0,1-2.55.7l9.57-1.28a10.34,10.34,0,0,1-1.76,0l9.57,1.29a9,9,0,0,1-2-.54l8.6,3.63a13.88,13.88,0,0,1-2.81-1.71l7.28,5.63c-4.27-3.41-8.16-7.4-12.18-11.1L458.28,664a40,40,0,0,0-25.45-10.54,27.11,27.11,0,0,0-13.87,3.1A26.93,26.93,0,0,0,407.37,664l-5.63,7.29a35.8,35.8,0,0,0-4.91,18.17l1.28,9.57a36,36,0,0,0,9.26,15.89l15.14,13.93c8.77,8.07,17.5,17.26,29.55,20.16,8.29,2,13.87,1.8,22.14.08a45.44,45.44,0,0,0,12.56-5.17c2.73-1.55,5.29-3.47,7.87-5.26q8.1-5.62,16-11.56C518.84,720.91,527,714.59,535,708a36,36,0,0,0,9.26-15.89,27.27,27.27,0,0,0,.64-14.35,26.81,26.81,0,0,0-4.27-13.39,36.16,36.16,0,0,0-12.92-12.91,72.44,72.44,0,0,0-6.67-3c-2.25-.94-4.53-2-6.88-2.76-4.61-1.45-10-1.82-14.55-2.38a45.23,45.23,0,0,0-11.21.14,168,168,0,0,0-20.86,3.59c-3.94,1-7.85,2.15-11.78,3.19a107.76,107.76,0,0,1-13.16,2.82l9.57-1.28a44.54,44.54,0,0,1-11.36.17l9.57,1.28a29.9,29.9,0,0,1-7.39-2l8.6,3.63c-.91-.4-1.8-.83-2.67-1.31L412.54,715.8c9.14,4.2,18.5,8.11,28.28,10.52,3.53.87,7.11,1.56,10.71,2.08,6.46.93,13,1.91,19.48,2.26,10.23.54,20.16-.73,30.29-2.16a124.86,124.86,0,0,0,18.9-4.2,241.27,241.27,0,0,0,26.31-10.21c6-2.59,11.8-5.49,17.54-8.55,11.64-6.21,22.91-13.1,34.28-19.78,13.13-7.72,26.44-15.1,40.47-21l-8.6,3.63a252.33,252.33,0,0,1,49.6-15.14q7.25-1.41,14.55-2.39l-9.57,1.29c2.87-.39,5.75-.72,8.64-1l-9.57-70.71a77.54,77.54,0,0,1-8.28,1.6l9.57-1.29c-20.41,2.69-40.61-2.44-60.94-3.37a138.7,138.7,0,0,0-35.26,3c-7.13,1.53-13.69,4.44-20.36,7.36s-12.16,7.38-17.84,11.91c-7.39,5.9-12.57,14-20,19.88l7.28-5.63a31.45,31.45,0,0,1-6.75,4l8.6-3.63a31.79,31.79,0,0,1-7.5,2l9.57-1.29c-7,.92-14,0-21-.48q-11.11-.78-22.27-.62A320.77,320.77,0,0,0,445,619.44q-12.31,2.26-24.36,5.7a40.22,40.22,0,0,0-21.52,16.54,26.87,26.87,0,0,0-4.27,13.39,27.27,27.27,0,0,0,.64,14.35l3.63,8.6A36.19,36.19,0,0,0,412,690.94l8.6,3.63a36.35,36.35,0,0,0,19.14,0Z" transform="translate(10 1.49)"/><path class="cls-1" d="M636.3,502.35a214.67,214.67,0,0,1,27.37-5.53l-9.57,1.29a214.61,214.61,0,0,1,56.67,0l-9.57-1.29c6.23.85,12.43,1.93,18.66,2.82,9.18,1.31,18.49,2.79,27.79,2.9a75.11,75.11,0,0,0,8.22-.33c4.28-.42,8.55-1.05,12.8-1.68,1.26-.19,2.52-.41,3.77-.68a55.11,55.11,0,0,0,7.16-2,110.81,110.81,0,0,0,15-6.43c5-2.64,9.51-6.43,13.82-9.93a36.28,36.28,0,0,0,5.74-5.88,40.09,40.09,0,0,0,10.54-25.46,40,40,0,0,0-10.54-25.45L806.87,419a35.81,35.81,0,0,0-18.17-4.92l-9.57,1.29a36,36,0,0,0-15.89,9.26A107.16,107.16,0,0,1,750,436.86l7.29-5.63a113.94,113.94,0,0,1-24.86,14.45l8.6-3.62a120.75,120.75,0,0,1-30.59,8.34l9.57-1.29a117.9,117.9,0,0,1-31,.05l9.57,1.28A107.63,107.63,0,0,1,671.19,443l8.6,3.63a33.48,33.48,0,0,1-7-3.72l7.29,5.62a13.28,13.28,0,0,1-2.48-2.43l5.63,7.28a9.31,9.31,0,0,1-1-1.7l3.63,8.6a8.46,8.46,0,0,1-.42-1.57l1.28,9.57a8,8,0,0,1,0-1.69l-1.28,9.57a7.82,7.82,0,0,1,.45-1.64l-3.63,8.6a9.66,9.66,0,0,1,1.05-1.75l-5.63,7.28a14.22,14.22,0,0,1,2.31-2.21l-7.28,5.63c3.81-2.85,8.44-4.81,12.8-6.66l-8.6,3.63a118.4,118.4,0,0,1,30.13-8.17l-9.57,1.28a125.64,125.64,0,0,1,32.82,0l-9.57-1.29a122.74,122.74,0,0,1,30.91,8.37l-8.6-3.63a113.52,113.52,0,0,1,22.23,12.44L783.45,431a559,559,0,0,0-121.65-2.66c-14.44,1.27-28.76,3.29-43.11,5.23l9.57-1.29c-6.59.88-13.25,1.51-19.87.63l9.57,1.28c-8.56-1.23-16.45-4.95-24.58-7.7-6.92-2.34-13.84-3.3-21.17-4.06a29.07,29.07,0,0,0-5.75,0c-4.86.49-10.47.89-15.28,2.57a40.22,40.22,0,0,0-21.52,16.54,26.84,26.84,0,0,0-4.27,13.39,27.27,27.27,0,0,0,.64,14.35l3.63,8.6a36.19,36.19,0,0,0,12.92,12.92l8.6,3.63a36.35,36.35,0,0,0,19.14,0,24.8,24.8,0,0,1,4.95-1.19l-9.57,1.28a30.76,30.76,0,0,1,7.67.09l-9.57-1.28c7.85,1.11,15.15,4.44,22.57,7a67.12,67.12,0,0,0,11.49,3.14c7.78,1.26,15.28,2.24,23.12,1.61,8.4-.67,16.73-2.11,25.08-3.23l-9.57,1.28a559.4,559.4,0,0,1,114.82-3.43q16.11,1.17,32.14,3.29l9.57-1.29a27.07,27.07,0,0,0,12.24-6.44,18,18,0,0,0,6.46-6.46,27,27,0,0,0,6.44-12.24l1.29-9.57-1.29-9.57a40.24,40.24,0,0,0-16.54-21.51c-10.83-7.78-23-13.29-35.5-17.92-12.71-4.72-26-6.84-39.46-8.24a124.93,124.93,0,0,0-15.47-.64,201.21,201.21,0,0,0-24.61,2.53,119.42,119.42,0,0,0-15.31,3.25c-7.85,2.22-15.3,5.43-22.79,8.66-2.37,1-4.7,2.13-7,3.32-1,.51-2,1-3,1.61-.53.31-1,.64-1.54,1-1.45,1-2.9,2.21-4.24,3.25s-3.08,2.27-4.48,3.5a46.15,46.15,0,0,0-7.5,9.37c-4.27,6.46-5.44,13.51-6,21a34.14,34.14,0,0,0,1.5,12.22c2.47,8.21,5.24,12,10.66,18.47a36.67,36.67,0,0,0,5.92,5,46.33,46.33,0,0,0,6.71,4.75,151,151,0,0,0,14.86,6.38,106.85,106.85,0,0,0,13.74,4.34,187.08,187.08,0,0,0,23.4,3.72,115.43,115.43,0,0,0,14.4.69c8-.12,15.74-1.25,23.62-2.33a124.62,124.62,0,0,0,14.18-2.78,120.2,120.2,0,0,0,13.73-4.47A193.41,193.41,0,0,0,778.81,503,110.86,110.86,0,0,0,791,495.34a176,176,0,0,0,18.09-14.6c1.75-1.66,3.44-3.39,5.07-5.16l-50.92-50.91a36.76,36.76,0,0,1-6.31,6.34l7.28-5.63a43.8,43.8,0,0,1-9.69,5.62l8.59-3.63a58.22,58.22,0,0,1-14.34,3.83l9.57-1.29c-8.82,1.18-17.74.5-26.52-.66l9.57,1.28c-17-2.28-33.78-5.53-50.92-6.17-16.93-.63-33.67,1.08-50.39,3.68a213.24,213.24,0,0,0-22.92,4.88,40.24,40.24,0,0,0-21.51,16.54,26.77,26.77,0,0,0-4.27,13.39A27.17,27.17,0,0,0,592,477.2l3.63,8.6a36.16,36.16,0,0,0,12.91,12.92l8.6,3.63a36.35,36.35,0,0,0,19.14,0Z" transform="translate(10 1.49)"/><path class="cls-9" d="M727,692.65c4.06-14.47-6.19-29.33-18.45-38S681.59,640.9,670,631.37c-20.09-16.5-28-44.17-27.44-70.15.32-15.11,4.72-32.39,18.39-38.84-1.4,19.9,14.87,36.35,30.93,48.2s34.39,23.61,40.54,42.59c-4.27-9.74.38-21.54,8.26-28.69s18.29-10.67,28.42-13.9,20.59-6.51,28.73-13.34c8.59-7.21,13.74-17.6,18.56-27.72,6.46,11.54,13,23.27,16,36.14s2.11,27.28-5.45,38.13c-12.43,17.83-37.94,20.8-54.05,35.4-11.42,10.34-17,25.47-21.9,40.08" transform="translate(10 1.49)"/><path class="cls-9" d="M63,488.38c27-3.09,54.09-6,81.28-7.12,13.65-.54,27.32-.61,41,.05,13.39.65,26.62,2.34,39.92,3.93s26.34,2.35,39.58.95c12-1.26,23.74-3.86,35.45-6.6s23.71-5.68,35.79-7.23a130.9,130.9,0,0,1,38.42.69c12.72,2.13,25.25,5.05,38,6.76A371.15,371.15,0,0,0,453.1,483q5.07.12,10.13.1a1.5,1.5,0,0,0,0-3,379.06,379.06,0,0,1-41-2.07c-13.14-1.39-26.05-3.78-39-6.34-12.69-2.5-25.37-4-38.32-3.15-11.89.79-23.6,3.14-35.2,5.8-11.85,2.71-23.64,5.72-35.65,7.65a156.47,156.47,0,0,1-38.67,1.37c-13.43-1.16-26.74-3.37-40.19-4.38s-27.24-1.27-40.86-1c-27.26.58-54.41,3.27-81.48,6.31L63,485.38c-1.9.22-1.92,3.22,0,3Z" transform="translate(10 1.49)"/><path class="cls-9" d="M234.4,649.85A619.1,619.1,0,0,1,308.26,641a653.24,653.24,0,0,1,149.69,8c12.53,2.1,25,4.29,37.66,5.74a263,263,0,0,0,38.78,1.57c25.82-.86,51.39-5.1,76.75-9.79l9.39-1.76c1.9-.35,1.09-3.24-.8-2.89-25.5,4.79-51.11,9.49-77.06,11.05a266.83,266.83,0,0,1-38.87-.36c-12.93-1.11-25.73-3.2-38.51-5.35a728.32,728.32,0,0,0-74.05-9.07,668.33,668.33,0,0,0-75-.6,634.22,634.22,0,0,0-73.64,7.8q-4.48.75-9,1.56c-1.9.35-1.09,3.24.8,2.9Z" transform="translate(10 1.49)"/><path class="cls-9" d="M198.4,424.8c24.43-7.93,50.23-11.5,75.85-12.31A300.36,300.36,0,0,1,353,420c13.45,3.19,26.81,6.89,40.61,8.3,14.31,1.47,28.56,0,42.69-2.37s28.21-5.39,42.55-6.32c13.79-.88,27.61.23,41.31,1.8,26,3,52.84,8.58,79,4.11q4.44-.76,8.79-2a1.51,1.51,0,0,0-.8-2.9c-25.42,7.08-52.66,2.05-78.28-1.18-13.57-1.71-27.22-3.24-40.92-3.17-14.2.08-28.17,2.43-42.11,4.93-14.22,2.54-28.52,5-43,4.67-14.29-.36-28.16-3.68-42-7.08a321.32,321.32,0,0,0-38.16-7.28,316,316,0,0,0-40-2.24c-25.8.14-51.88,3.06-76.76,10-2.81.78-5.61,1.63-8.39,2.53-1.83.6-1,3.5.8,2.9Z" transform="translate(10 1.49)"/><path class="cls-9" d="M670.05,524.08l27.42-3.56c9.14-1.19,18.29-2.62,27.5-3.25a79.86,79.86,0,0,1,25.81,2.33c7.85,2,15.49,4.87,23.42,6.61s15.93,2.17,23.85.27c7.6-1.83,14.63-5.37,21.83-8.33a77.38,77.38,0,0,1,11.18-3.78,67.23,67.23,0,0,1,13-1.71c9-.37,18.08.44,27.08,1l56,3.57,6.84.44c1.93.12,1.92-2.88,0-3l-56-3.57c-9-.58-18.11-1.37-27.18-1.52-8.55-.14-17.13.56-25.29,3.25-7.5,2.48-14.51,6.19-21.94,8.83a48.25,48.25,0,0,1-23.47,2.59c-8-1.16-15.69-3.84-23.42-6.12-8.21-2.42-16.46-4.13-25.06-4.11-9.11,0-18.16,1.42-27.18,2.58l-27.68,3.59-6.72.88c-1.89.24-1.91,3.24,0,3Z" transform="translate(10 1.49)"/><path class="cls-9" d="M565.28,715a91.24,91.24,0,0,1,50.25-4.24,90.11,90.11,0,0,1,24,8.45c7.45,3.87,14.68,8.55,22.87,10.72A31,31,0,0,0,683.8,728c6.25-2.94,11.55-7.65,16.45-12.44,5.15-5,10-10.38,15.46-15.07a62.27,62.27,0,0,1,21.53-12,61.58,61.58,0,0,1,12.31-2.6c3.85-.4,7.73-.39,11.6-.44,7.27-.1,15.06-.27,21.59-3.88a22.44,22.44,0,0,0,4.36-3.2c1.41-1.32-.71-3.44-2.12-2.12-5.49,5.12-13.22,5.91-20.38,6.13-7.93.23-15.73.08-23.51,1.93a65.11,65.11,0,0,0-22.58,10.21c-6,4.24-11,9.52-16.17,14.71-9.52,9.67-20.72,20.77-35.54,18.58-8.31-1.22-15.68-5.75-22.94-9.68a99.07,99.07,0,0,0-23.39-9.31,94.42,94.42,0,0,0-50,1.23c-2,.62-4,1.32-6,2.08-1.79.69-1,3.59.79,2.89Z" transform="translate(10 1.49)"/><path class="cls-9" d="M656.36,452.46c3.67-6.46,10.06-10.63,16.71-13.57,7.71-3.41,16.06-5.32,24.31-6.83,9.8-1.79,19.73-3.11,29.62-4.23a193.69,193.69,0,0,1,33.09-1.34c20.43,1.2,39.28,8.8,58.7,14.53a136.13,136.13,0,0,0,29,5.69,123.54,123.54,0,0,0,30.09-2.14c19.91-3.57,39.35-10.13,59.66-11.19,2.5-.13,5-.17,7.51-.13,1.93,0,1.93-3,0-3-20.6-.36-40.43,5.73-60.38,9.94-10,2.11-20.17,3.73-30.42,3.73a114.24,114.24,0,0,1-30-4.49c-19.51-5.3-38.26-13.39-58.54-15.49a168,168,0,0,0-33.33.33c-10.42,1-20.83,2.43-31.16,4.11a133.85,133.85,0,0,0-25.44,6.22c-7,2.6-14,6.23-18.91,12a27.41,27.41,0,0,0-3.05,4.35,1.5,1.5,0,0,0,2.59,1.51Z" transform="translate(10 1.49)"/><path class="cls-9" d="M880.28,623.8a339,339,0,0,1,58.8-10.51,354.7,354.7,0,0,1,59.83-.32,360.37,360.37,0,0,1,59.36,10c9.89,2.48,19.77,5.07,29.84,6.76a142.09,142.09,0,0,0,30.9,1.82c20.78-1.06,41.09-6.13,61.07-11.66l7.32-2.05a1.5,1.5,0,0,0-.8-2.89c-20.06,5.63-40.31,11.26-61.14,13.14a142.34,142.34,0,0,1-30.88-.4c-10.28-1.32-20.38-3.81-30.42-6.33-9.81-2.47-19.61-4.87-29.56-6.7q-14.64-2.68-29.48-4.12a356.72,356.72,0,0,0-59.82-.73,346.74,346.74,0,0,0-58.8,9.29c-2.35.59-4.68,1.2-7,1.83a1.51,1.51,0,0,0,.8,2.9Z" transform="translate(10 1.49)"/><path class="cls-9" d="M1009.83,482.77l27.42-3.56c9.14-1.18,18.3-2.62,27.5-3.25a79.92,79.92,0,0,1,25.82,2.33c7.84,2,15.48,4.87,23.41,6.61s15.93,2.17,23.85.27c7.61-1.83,14.63-5.37,21.83-8.33a77.38,77.38,0,0,1,11.18-3.78,67.23,67.23,0,0,1,13-1.71c9-.37,18.07.44,27.07,1l56,3.57,6.84.44c1.92.12,1.92-2.88,0-3l-56-3.57c-9-.58-18.11-1.36-27.18-1.52-8.56-.14-17.13.56-25.3,3.25-7.49,2.48-14.5,6.19-21.94,8.83a48.23,48.23,0,0,1-23.47,2.59c-8-1.15-15.68-3.84-23.42-6.12-8.21-2.42-16.46-4.13-25-4.11-9.11,0-18.17,1.42-27.18,2.59l-27.68,3.58-6.73.88c-1.88.24-1.91,3.24,0,3Z" transform="translate(10 1.49)"/></svg>