<svg id="Layer_1" data-name="Layer 1" xmlns="http://www.w3.org/2000/svg" viewBox="0 0 3840 350.23"><defs><style>.cls-1{fill:#5f94e0;}</style></defs><path class="cls-1" d="M2418.5,366.55c-47.93-2.42-105.21-13.81-296.45,83.58-248.7,141.08-609.59,167.94-467.5-63.66-70.68-23.42-232.63,40.63-325.29,85.64C961,594,914.26,537,952.22,372.53c-100.39,21.66-181,52-242.94,90.55h0C545.54,529.5,434.67,555.52,498.5,366.55c-47.93-2.42-105.21-13.81-296.45,83.58-248.7,141.08-609.59,167.94-467.5-63.66-70.68-23.42-232.63,40.63-325.29,85.64C-959,594-1005.74,537-967.78,372.53c-133.59,28.83-232.15,73-298.32,131.45V715.11h3840V530.26C2410.15,596.68,2354.67,555.52,2418.5,366.55Z" transform="translate(1266.1 -364.89)"/></svg>